<svg width="15" height="20" viewBox="0 0 15 20" fill="none" xmlns="http://www.w3.org/2000/svg">
<path fill-rule="evenodd" clip-rule="evenodd" d="M10.2228 2.91806C10.9397 2.14509 11.4249 1.07119 11.2924 0C10.2585 0.0371651 9.00585 0.610826 8.26508 1.3835C7.59932 2.06836 7.01748 3.16203 7.17284 4.21164C8.32699 4.29107 9.50435 3.69013 10.2228 2.91806ZM12.4237 10.3124C12.4014 7.91137 14.3109 6.75925 14.3966 6.70261C13.3234 5.07304 11.6511 4.84975 11.0562 4.82487C9.63359 4.67441 8.28034 5.69315 7.55773 5.69315C6.8378 5.69315 5.72413 4.84495 4.54379 4.86743C2.99262 4.89291 1.56288 5.80285 0.765275 7.2451C-0.846307 10.1458 0.351889 14.444 1.923 16.7965C2.69054 17.9486 3.60511 19.2407 4.80599 19.1937C5.964 19.1475 6.4012 18.4174 7.79999 18.4174C9.19788 18.4174 9.59133 19.1937 10.8148 19.1703C12.0597 19.1475 12.8487 17.9963 13.6109 16.8412C14.4915 15.5059 14.854 14.2124 14.8761 14.1467C14.8481 14.1323 12.449 13.1804 12.4237 10.3124Z" fill="white"/>
</svg>
