<svg width="18" height="18" viewBox="0 0 18 18" fill="none" xmlns="http://www.w3.org/2000/svg">
<path d="M2.95898 3.375H15.0409C15.1498 3.375 15.2565 3.40665 15.3478 3.46611C15.4391 3.52557 15.5112 3.61028 15.5553 3.70994C15.5994 3.8096 15.6136 3.91991 15.5961 4.02748C15.5787 4.13505 15.5304 4.23524 15.4571 4.31588L10.8337 9.40159C10.7396 9.50513 10.6874 9.64004 10.6874 9.77997V13.7615C10.6874 13.8541 10.6646 13.9452 10.6209 14.0269C10.5772 14.1085 10.514 14.1781 10.4369 14.2295L8.18694 15.7295C8.10223 15.786 8.00378 15.8184 7.90208 15.8233C7.80039 15.8282 7.69927 15.8054 7.6095 15.7574C7.51974 15.7094 7.4447 15.6379 7.39238 15.5505C7.34006 15.4632 7.31242 15.3633 7.31242 15.2615V9.77997C7.31242 9.64004 7.26027 9.50513 7.16614 9.40159L2.54277 4.31588C2.46946 4.23524 2.42116 4.13505 2.40373 4.02748C2.3863 3.91991 2.40048 3.8096 2.44457 3.70994C2.48866 3.61028 2.56074 3.52557 2.65206 3.46611C2.74338 3.40665 2.85001 3.375 2.95898 3.375Z" stroke="#455468" stroke-width="1.5" stroke-linecap="round" stroke-linejoin="round"/>
</svg>
