<svg width="90" height="16" viewBox="0 0 90 16" fill="none" xmlns="http://www.w3.org/2000/svg">
<path d="M89.5591 12.268C89.188 13.4089 88.5213 14.3093 87.5591 14.9691C86.5969 15.6289 85.4423 15.9588 84.0952 15.9588C83.133 15.9588 82.2876 15.8007 81.5591 15.4845C80.8306 15.1546 80.2189 14.7148 79.724 14.165C79.2292 13.6151 78.8581 12.9828 78.6106 12.268C78.3632 11.5395 78.2395 10.7835 78.2395 10C78.2395 9.2165 78.3632 8.46736 78.6106 7.75258C78.8581 7.0378 79.2223 6.4055 79.7034 5.85567C80.1983 5.30584 80.8031 4.86598 81.5179 4.53608C82.2464 4.20619 83.0917 4.04124 84.0539 4.04124C84.9199 4.04124 85.7034 4.19244 86.4045 4.49485C87.1192 4.79725 87.724 5.20962 88.2189 5.73196C88.7137 6.24055 89.0917 6.83162 89.3529 7.50516C89.6278 8.1787 89.7653 8.8866 89.7653 9.62887C89.7653 9.82131 89.7515 10.0137 89.7241 10.2062C89.7103 10.3849 89.6897 10.5704 89.6622 10.7629H81.4766C81.5453 11.0928 81.6553 11.4089 81.8065 11.7113C81.9715 12.0137 82.1777 12.2818 82.4251 12.5155C82.6725 12.7491 82.9612 12.9347 83.2911 13.0722C83.621 13.2096 83.999 13.2784 84.4251 13.2784C84.8512 13.2784 85.2567 13.2028 85.6416 13.0515C86.0402 12.8866 86.3426 12.6254 86.5488 12.268H89.5591ZM86.4869 8.35052C86.3357 7.89691 86.0746 7.51203 85.7034 7.19588C85.346 6.87973 84.8581 6.72165 84.2395 6.72165C83.6072 6.72165 83.0849 6.87973 82.6725 7.19588C82.2601 7.51203 81.9508 7.89691 81.7447 8.35052H86.4869Z" fill="#AFBACA"/>
<path d="M72.9169 8.59793C73.288 8.69415 73.721 8.81099 74.2159 8.94845C74.7107 9.08591 75.1781 9.28522 75.6179 9.54639C76.0716 9.80756 76.4564 10.1581 76.7726 10.5979C77.0887 11.0241 77.2468 11.5808 77.2468 12.268C77.2468 12.9003 77.1094 13.457 76.8344 13.9381C76.5733 14.4055 76.2228 14.7904 75.7829 15.0928C75.3568 15.3952 74.8688 15.622 74.319 15.7732C73.7691 15.9244 73.2124 16 72.6489 16C71.2743 16 70.2021 15.677 69.4324 15.0309C68.6626 14.3849 68.2228 13.4914 68.1128 12.3505H70.7932C70.8482 12.8179 71.0269 13.1478 71.3293 13.3402C71.6317 13.5189 72.0922 13.6082 72.7107 13.6082C73.1506 13.6082 73.5149 13.5326 73.8035 13.3814C74.0922 13.2165 74.2365 12.9966 74.2365 12.7216C74.2365 12.3368 74.0716 12.055 73.7417 11.8763C73.4118 11.6976 73.0063 11.5395 72.5252 11.4021C72.0715 11.2646 71.5905 11.1271 71.0819 10.9897C70.5733 10.8385 70.1059 10.6323 69.6798 10.3711C69.2537 10.11 68.8963 9.77319 68.6076 9.36082C68.3327 8.93471 68.1953 8.38488 68.1953 7.71134C68.1953 7.07903 68.319 6.53608 68.5664 6.08247C68.8276 5.61512 69.1643 5.23024 69.5767 4.92783C70.0028 4.61168 70.4839 4.378 71.02 4.2268C71.5561 4.0756 72.1059 4 72.6695 4C73.4255 4 74.0647 4.09622 74.587 4.28866C75.1094 4.4811 75.5355 4.74914 75.8654 5.09278C76.209 5.42268 76.4633 5.80756 76.6283 6.24742C76.7932 6.68728 76.8894 7.15464 76.9169 7.64948H74.2777C74.2365 7.20962 74.0784 6.89347 73.8035 6.70103C73.5423 6.49484 73.1506 6.39175 72.6283 6.39175C72.2159 6.39175 71.8722 6.47422 71.5973 6.63917C71.3362 6.80412 71.2056 7.01718 71.2056 7.27835C71.2056 7.62199 71.3705 7.8969 71.7004 8.10309C72.0303 8.29553 72.4358 8.46048 72.9169 8.59793Z" fill="#AFBACA"/>
<path d="M67.0061 15.6289H63.9339L63.5628 14.5361H63.5009C63.0611 14.9759 62.5525 15.3265 61.9752 15.5876C61.3978 15.8351 60.7793 15.9588 60.1195 15.9588C59.5009 15.9588 58.9167 15.8557 58.3669 15.6495C57.8171 15.4433 57.336 15.1684 56.9236 14.8247C56.5112 14.4674 56.1882 14.055 55.9545 13.5876C55.7209 13.1065 55.6246 12.5979 55.6659 12.0619C55.7209 11.3471 55.8996 10.7766 56.202 10.3505C56.5181 9.91065 56.903 9.56701 57.3566 9.31959C57.8102 9.07216 58.3119 8.89347 58.8618 8.7835C59.4253 8.67354 59.9889 8.59106 60.5525 8.53608C61.1161 8.46735 61.6453 8.39862 62.1401 8.3299C62.6487 8.24742 63.0817 8.11684 63.4391 7.93814C63.3291 7.36082 63.1229 6.91409 62.8205 6.59794C62.5319 6.28178 62.0714 6.12371 61.4391 6.12371C60.9855 6.12371 60.58 6.25429 60.2226 6.51546C59.8652 6.77663 59.6865 7.20962 59.6865 7.81443H56.6143C56.6418 7.27835 56.7724 6.77663 57.0061 6.30928C57.2398 5.84192 57.5628 5.4433 57.9752 5.1134C58.4013 4.76976 58.903 4.50172 59.4803 4.30928C60.0714 4.10309 60.7243 4 61.4391 4C62.47 4 63.3222 4.13745 63.9958 4.41237C64.6831 4.68728 65.226 5.06529 65.6246 5.54639C66.037 6.01374 66.3188 6.56357 66.47 7.19587C66.635 7.82818 66.7174 8.50859 66.7174 9.23711V14.5361L67.0061 15.6289ZM63.5628 9.79381C63.1092 9.91752 62.6143 10.0206 62.0783 10.1031C61.5559 10.1718 61.0611 10.2612 60.5937 10.3711C60.1401 10.4811 59.7484 10.646 59.4185 10.866C59.1023 11.0859 58.9236 11.4021 58.8824 11.8144C58.8549 12.0481 58.8961 12.2612 59.0061 12.4536C59.1161 12.6323 59.2673 12.7835 59.4597 12.9072C59.6521 13.0309 59.8721 13.1271 60.1195 13.1959C60.3669 13.2509 60.6143 13.2783 60.8618 13.2783C61.3841 13.2783 61.8171 13.2027 62.1607 13.0515C62.5044 12.8866 62.7793 12.6735 62.9855 12.4124C63.1917 12.1512 63.336 11.8419 63.4185 11.4845C63.5147 11.1271 63.5628 10.756 63.5628 10.3711V9.79381Z" fill="#AFBACA"/>
<path d="M49.4187 13.2783C50.0785 13.2783 50.6352 13.0928 51.0888 12.7216C51.5562 12.3368 51.838 11.8488 51.9342 11.2577H54.8002C54.7727 11.9588 54.6215 12.5979 54.3465 13.1753C54.0854 13.7526 53.7211 14.2474 53.2538 14.6598C52.7864 15.0722 52.2228 15.3952 51.563 15.6289C50.917 15.8488 50.2022 15.9588 49.4187 15.9588C48.4565 15.9588 47.6112 15.7869 46.8826 15.4433C46.1679 15.0997 45.5768 14.646 45.1094 14.0825C44.6421 13.5052 44.2916 12.8522 44.0579 12.1237C43.8242 11.3814 43.7074 10.6186 43.7074 9.83505C43.7074 9.05154 43.8311 8.30927 44.0785 7.60824C44.3397 6.90721 44.7177 6.28866 45.2125 5.75257C45.7074 5.21649 46.3122 4.79037 47.027 4.47422C47.7555 4.15807 48.5871 4 49.5218 4C50.2366 4 50.9101 4.10996 51.5424 4.32989C52.1885 4.53608 52.7452 4.83848 53.2125 5.23711C53.6936 5.62199 54.0716 6.08934 54.3465 6.63917C54.6352 7.189 54.7864 7.79381 54.8002 8.4536H51.8929C51.783 7.94501 51.5424 7.53264 51.1713 7.21649C50.8139 6.88659 50.3397 6.72165 49.7486 6.72165C49.2538 6.72165 48.8208 6.82474 48.4496 7.03092C48.0923 7.22336 47.7967 7.47766 47.563 7.79381C47.3294 8.09622 47.1507 8.44673 47.027 8.84536C46.917 9.23024 46.862 9.61512 46.862 10C46.862 10.3436 46.9033 10.7079 46.9857 11.0928C47.0819 11.4777 47.2263 11.835 47.4187 12.1649C47.6249 12.4811 47.8929 12.7491 48.2228 12.9691C48.5527 13.1753 48.9514 13.2783 49.4187 13.2783Z" fill="#AFBACA"/>
<path d="M35.7467 4.37113H37.6436V0.927832H40.757V4.37113H42.922V6.76289H40.757V11.7938C40.757 12.1787 40.8189 12.5155 40.9426 12.8041C41.0663 13.0928 41.3481 13.2371 41.788 13.2371H42.9632V15.6289H40.757C40.166 15.6289 39.6711 15.5601 39.2725 15.4227C38.8739 15.2852 38.5508 15.0859 38.3034 14.8247C38.0697 14.5636 37.8979 14.2543 37.788 13.8969C37.6917 13.5258 37.6436 13.1065 37.6436 12.6392V6.76289H35.7467V4.37113Z" fill="#AFBACA"/>
<path d="M31.516 15.6289V0H34.6294V15.6289H31.516Z" fill="#AFBACA"/>
<path d="M30.0175 15.6289H26.9454L26.5742 14.5361H26.5124C26.0725 14.9759 25.5639 15.3265 24.9866 15.5876C24.4093 15.8351 23.7907 15.9588 23.1309 15.9588C22.5124 15.9588 21.9282 15.8557 21.3783 15.6495C20.8285 15.4433 20.3474 15.1684 19.935 14.8247C19.5227 14.4674 19.1996 14.055 18.966 13.5876C18.7323 13.1065 18.6361 12.5979 18.6773 12.0619C18.7323 11.3471 18.911 10.7766 19.2134 10.3505C19.5295 9.91065 19.9144 9.56701 20.368 9.31959C20.8216 9.07216 21.3234 8.89347 21.8732 8.7835C22.4368 8.67354 23.0003 8.59106 23.5639 8.53608C24.1275 8.46735 24.6567 8.39862 25.1515 8.3299C25.6601 8.24742 26.0931 8.11684 26.4505 7.93814C26.3405 7.36082 26.1344 6.91409 25.8319 6.59794C25.5433 6.28178 25.0828 6.12371 24.4505 6.12371C23.9969 6.12371 23.5914 6.25429 23.234 6.51546C22.8766 6.77663 22.6979 7.20962 22.6979 7.81443H19.6258C19.6533 7.27835 19.7838 6.77663 20.0175 6.30928C20.2512 5.84192 20.5742 5.4433 20.9866 5.1134C21.4127 4.76976 21.9144 4.50172 22.4917 4.30928C23.0828 4.10309 23.7357 4 24.4505 4C25.4814 4 26.3337 4.13745 27.0072 4.41237C27.6945 4.68728 28.2374 5.06529 28.6361 5.54639C29.0484 6.01374 29.3302 6.56357 29.4814 7.19587C29.6464 7.82818 29.7289 8.50859 29.7289 9.23711V14.5361L30.0175 15.6289ZM26.5742 9.79381C26.1206 9.91752 25.6258 10.0206 25.0897 10.1031C24.5673 10.1718 24.0725 10.2612 23.6051 10.3711C23.1515 10.4811 22.7598 10.646 22.4299 10.866C22.1137 11.0859 21.935 11.4021 21.8938 11.8144C21.8663 12.0481 21.9075 12.2612 22.0175 12.4536C22.1275 12.6323 22.2787 12.7835 22.4711 12.9072C22.6636 13.0309 22.8835 13.1271 23.1309 13.1959C23.3783 13.2509 23.6258 13.2783 23.8732 13.2783C24.3955 13.2783 24.8285 13.2027 25.1722 13.0515C25.5158 12.8866 25.7907 12.6735 25.9969 12.4124C26.2031 12.1512 26.3474 11.8419 26.4299 11.4845C26.5261 11.1271 26.5742 10.756 26.5742 10.3711V9.79381Z" fill="#AFBACA"/>
<path d="M3.13023 15.9991L0 16L12.0347 0H15.1817L3.13023 15.9991Z" fill="#AFBACA"/>
<path d="M10.9922 9.41113L6.10965 15.9991H15.9529L10.9922 9.41113Z" fill="#AFBACA"/>
</svg>
