<svg width="634" height="328" viewBox="0 0 634 328" fill="none" xmlns="http://www.w3.org/2000/svg">
<g clip-path="url(#clip0_9216_8602)">
<g opacity="0.68">
<path opacity="0.47" d="M560.452 159.291C557.956 134.475 545.955 109.622 525.174 91.8565C492.785 64.1758 443.79 57.1982 400.851 63.5974C382.868 66.2782 365.031 71.0248 346.617 69.5283C319.761 67.3524 296.099 52.4058 271.647 41.462C238.36 26.5521 200.2 18.5279 164.812 25.0189C124.689 32.3728 91.7871 60.1545 87.8601 97.0162C86.0802 113.716 104.155 143.141 98.4482 158.969C92.6587 175.027 50.4165 224.2 51.4625 261.604C52.4992 298.869 62.2249 310.456 75.9784 329.396H524.917C533.477 310.208 540.184 294.857 530.165 269.655C522.155 249.522 543.909 232.941 552.332 214.193C559.828 197.511 562.287 177.451 560.461 159.282L560.452 159.291Z" fill="#2DBA50"/>
</g>
<path opacity="0.41" d="M3.73343 157.802C-4.82695 141.028 1.82501 120.491 18.5879 111.925C35.3509 103.359 67.5188 104.066 76.0792 120.839C84.6396 137.613 58.8392 151.936 48.297 167.534C33.5984 189.293 12.2938 174.576 3.73343 157.802Z" fill="#2DBA50"/>
<path opacity="0.41" d="M592.253 222.721C600.455 231.608 601.116 244.342 593.739 251.145C586.362 257.958 568.618 260.997 560.415 252.109C552.212 243.222 563.333 232.067 565.828 221.812C569.315 207.508 584.05 213.825 592.253 222.721Z" fill="#2DBA50"/>
<path opacity="0.41" d="M523.229 22.6582C532.743 17.6362 544.524 21.2811 549.543 30.7926C554.562 40.3133 554.415 58.712 544.9 63.734C535.386 68.756 527.009 54.1215 518.017 48.2089C505.475 39.9736 513.714 27.6802 523.229 22.6582Z" fill="#2DBA50"/>
<g opacity="0.43">
<path d="M510.923 307.444C515.3 285.686 508.281 267.112 506.538 245.776C504.886 225.568 512.052 208.584 516.034 189.34C519.576 172.218 518.392 152.818 513.951 135.989C507.887 113.009 493.904 91.728 473.773 78.7552C442.404 58.5387 400.556 60.9257 365.902 74.8258C351.387 80.6465 337.33 88.3953 321.778 90.36C299.107 93.2153 277.041 83.4375 254.947 77.5709C224.88 69.5834 191.877 68.9958 163.508 81.6013C131.34 95.8961 108.475 128.158 111.145 163.689C112.356 179.792 118.55 195.675 116.357 211.668C114.136 227.891 104.503 241.461 99.4012 256.738C92.4465 277.588 91.8134 308.234 102.998 329.396H503.391C506.841 322.474 509.391 315.065 510.923 307.444Z" fill="#2DBA50"/>
</g>
<path opacity="0.47" d="M436.468 239.257C435.192 226.11 429.045 212.935 418.393 203.525C401.795 188.863 376.701 185.163 354.699 188.551C345.487 189.974 336.349 192.489 326.908 191.691C313.145 190.534 301.025 182.62 288.501 176.817C271.444 168.922 251.901 164.671 233.762 168.105C213.201 171.997 196.346 186.724 194.336 206.252C193.428 215.102 202.686 230.691 199.759 239.083C196.795 247.594 175.151 273.649 175.683 293.462C176.216 313.21 181.198 319.352 188.244 329.387H418.246C422.632 319.214 426.072 311.089 420.934 297.731C416.833 287.063 427.981 278.276 432.293 268.343C436.128 259.501 437.394 248.879 436.459 239.248L436.468 239.257Z" fill="#2DBA50"/>
<path d="M600.676 193.792C602.956 193.792 604.804 191.942 604.804 189.661C604.804 187.379 602.956 185.529 600.676 185.529C598.395 185.529 596.547 187.379 596.547 189.661C596.547 191.942 598.395 193.792 600.676 193.792Z" fill="#014C14"/>
<path d="M571.316 307.637C573.089 307.637 574.527 306.198 574.527 304.423C574.527 302.649 573.089 301.21 571.316 301.21C569.542 301.21 568.104 302.649 568.104 304.423C568.104 306.198 569.542 307.637 571.316 307.637Z" fill="#4EFF7A"/>
<path d="M73.1054 50.5686C75.3856 50.5686 77.2342 48.7188 77.2342 46.4371C77.2342 44.1554 75.3856 42.3057 73.1054 42.3057C70.8251 42.3057 68.9766 44.1554 68.9766 46.4371C68.9766 48.7188 70.8251 50.5686 73.1054 50.5686Z" fill="#4EFF7A"/>
<path d="M34.249 292.424C34.249 294.847 32.2855 296.812 29.8632 296.812C27.441 296.812 25.4775 294.847 25.4775 292.424C25.4775 290 27.441 288.035 29.8632 288.035C32.2855 288.035 34.249 290 34.249 292.424Z" fill="#014C14"/>
<path d="M46.4983 68.0131C47.2584 68.0131 47.8746 67.3965 47.8746 66.6359C47.8746 65.8754 47.2584 65.2588 46.4983 65.2588C45.7382 65.2588 45.1221 65.8754 45.1221 66.6359C45.1221 67.3965 45.7382 68.0131 46.4983 68.0131Z" fill="#014C14"/>
<path d="M398.374 13.3398C397.098 19.2982 391.244 23.0992 385.29 21.823C379.335 20.5469 375.537 14.6894 376.812 8.73092C378.087 2.77246 383.941 -1.02847 389.896 0.247689C395.85 1.52385 399.649 7.38132 398.374 13.3398Z" fill="#4EFF7A"/>
<path d="M572.241 29.8659C571.856 31.6746 570.076 32.8314 568.269 32.4458C566.461 32.0602 565.305 30.2791 565.69 28.4704C566.076 26.6618 567.856 25.5049 569.663 25.8905C571.471 26.2761 572.627 28.0573 572.241 29.8659Z" fill="#FFB54A"/>
<path d="M141.131 8.54756C140.746 10.3562 138.966 11.513 137.158 11.1274C135.351 10.7418 134.195 8.9607 134.58 7.15205C134.965 5.34339 136.745 4.18659 138.553 4.57219C140.36 4.95779 141.516 6.7389 141.131 8.54756Z" fill="#FFB54A"/>
<path d="M599.821 105.278C599.436 107.087 597.656 108.243 595.849 107.858C594.041 107.472 592.885 105.691 593.27 103.883C593.656 102.074 595.436 100.917 597.243 101.303C599.051 101.688 600.207 103.469 599.821 105.278Z" fill="#4EFF7A"/>
<path d="M358.838 23.8335C358.536 25.2566 357.141 26.1563 355.719 25.8534C354.297 25.5504 353.397 24.1549 353.7 22.7318C354.003 21.3088 355.398 20.409 356.82 20.712C358.242 21.015 359.141 22.4105 358.838 23.8335Z" fill="#014C14"/>
<path d="M321.663 130.443C350.785 130.443 374.392 106.82 374.392 77.6801C374.392 48.5399 350.785 24.917 321.663 24.917C292.541 24.917 268.934 48.5399 268.934 77.6801C268.934 106.82 292.541 130.443 321.663 130.443Z" fill="#1B1B25"/>
<path d="M316.102 124.88C345.224 124.88 368.832 101.257 368.832 72.1167C368.832 42.9764 345.224 19.3535 316.102 19.3535C286.981 19.3535 263.373 42.9764 263.373 72.1167C263.373 101.257 286.981 124.88 316.102 124.88Z" fill="#FFB54A"/>
<path d="M316.102 114.716C292.688 114.716 273.631 95.6566 273.631 72.2176C273.631 48.7785 292.678 29.7188 316.102 29.7188C339.527 29.7188 358.574 48.7785 358.574 72.2176C358.574 95.6566 339.527 114.716 316.102 114.716ZM316.102 32.4822C294.201 32.4822 276.383 50.3117 276.383 72.2267C276.383 94.1417 294.201 111.971 316.102 111.971C338.003 111.971 355.822 94.1417 355.822 72.2267C355.822 50.3117 338.003 32.4822 316.102 32.4822Z" fill="#FCF0E3"/>
<path d="M313.001 91.2679C310.35 90.9374 307.799 90.2763 305.331 89.2756C302.863 88.2749 300.615 86.9987 298.578 85.4563L303.349 78.4879C305.019 79.7549 306.643 80.8015 308.212 81.637C309.781 82.4725 311.478 83.0784 313.313 83.4365V73.7138C311.111 73.0987 309.185 72.4285 307.542 71.694C305.891 70.9595 304.524 70.0873 303.45 69.0682C302.367 68.0492 301.56 66.8556 301.01 65.4877C300.459 64.1197 300.184 62.5406 300.184 60.7503V60.6309C300.184 58.9233 300.487 57.3717 301.101 55.9853C301.716 54.599 302.578 53.3963 303.698 52.3772C304.817 51.3581 306.175 50.5318 307.762 49.8983C309.35 49.2648 311.102 48.8517 313.02 48.6405V45.0967H319.378V48.7691C321.58 49.0996 323.608 49.6321 325.461 50.3941C327.315 51.147 329.076 52.1201 330.746 53.2953L326.654 60.4473C325.434 59.6302 324.186 58.9049 322.929 58.2806C321.663 57.6471 320.378 57.1697 319.075 56.8392V66.0752C323.718 67.3422 327.094 68.9948 329.186 71.033C331.287 73.0712 332.333 75.8071 332.333 79.2316V79.3509C332.333 81.0678 332.021 82.6102 331.388 83.9965C330.755 85.3829 329.884 86.5856 328.755 87.6047C327.636 88.6237 326.278 89.4592 324.691 90.1111C323.103 90.7629 321.332 91.1944 319.378 91.3964V97.4467H313.02V91.2679H313.001ZM313.304 56.2883C311.836 56.4903 310.772 56.931 310.093 57.6012C309.423 58.2714 309.084 59.0977 309.084 60.0801V60.1994C309.084 61.1359 309.368 61.9438 309.937 62.614C310.506 63.2842 311.625 63.9269 313.295 64.542V56.2883H313.304ZM319.048 83.7486C321.938 83.2988 323.388 81.9951 323.388 79.8375V79.7182C323.388 78.6624 323.085 77.7902 322.47 77.12C321.855 76.4498 320.718 75.8071 319.048 75.192V83.7578V83.7486Z" fill="#1B1B25"/>
<path d="M321.663 130.443C350.785 130.443 374.392 106.82 374.392 77.6801C374.392 48.5399 350.785 24.917 321.663 24.917C292.541 24.917 268.934 48.5399 268.934 77.6801C268.934 106.82 292.541 130.443 321.663 130.443Z" fill="#1B1B25"/>
<path d="M316.102 124.88C345.224 124.88 368.832 101.257 368.832 72.1167C368.832 42.9764 345.224 19.3535 316.102 19.3535C286.981 19.3535 263.373 42.9764 263.373 72.1167C263.373 101.257 286.981 124.88 316.102 124.88Z" fill="#FFB54A"/>
<path d="M316.102 114.716C292.688 114.716 273.631 95.6566 273.631 72.2176C273.631 48.7785 292.678 29.7188 316.102 29.7188C339.527 29.7188 358.574 48.7785 358.574 72.2176C358.574 95.6566 339.527 114.716 316.102 114.716ZM316.102 32.4822C294.201 32.4822 276.383 50.3117 276.383 72.2267C276.383 94.1417 294.201 111.971 316.102 111.971C338.003 111.971 355.822 94.1417 355.822 72.2267C355.822 50.3117 338.003 32.4822 316.102 32.4822Z" fill="#FCF0E3"/>
<path d="M263.567 71.5654C276.742 71.5654 287.423 60.8781 287.423 47.6948C287.423 34.5114 276.742 23.8242 263.567 23.8242C250.392 23.8242 239.712 34.5114 239.712 47.6948C239.712 60.8781 250.392 71.5654 263.567 71.5654Z" fill="#1B1B25"/>
<path d="M261.053 69.0497C274.227 69.0497 284.908 58.3625 284.908 45.1792C284.908 31.9958 274.227 21.3086 261.053 21.3086C247.878 21.3086 237.197 31.9958 237.197 45.1792C237.197 58.3625 247.878 69.0497 261.053 69.0497Z" fill="#FFB54A"/>
<path d="M261.053 64.4588C250.455 64.4588 241.84 55.8286 241.84 45.2338C241.84 34.6389 250.464 26.0088 261.053 26.0088C271.641 26.0088 280.265 34.6389 280.265 45.2338C280.265 55.8286 271.641 64.4588 261.053 64.4588ZM261.053 27.2482C251.143 27.2482 243.078 35.3183 243.078 45.2338C243.078 55.1492 251.143 63.2193 261.053 63.2193C270.962 63.2193 279.027 55.1492 279.027 45.2338C279.027 35.3183 270.962 27.2482 261.053 27.2482Z" fill="#FCF0E3"/>
<path d="M234.105 88.0549C234.105 82.326 229.462 77.6896 223.746 77.6896C229.471 77.6896 234.105 73.044 234.105 67.3242C234.105 73.0532 238.747 77.6896 244.464 77.6896C238.738 77.6896 234.105 82.3351 234.105 88.0549Z" fill="white"/>
<path d="M355.823 140.175C355.823 135.97 352.419 132.564 348.217 132.564C352.419 132.564 355.823 129.158 355.823 124.953C355.823 129.158 359.227 132.564 363.429 132.564C359.227 132.564 355.823 135.97 355.823 140.175Z" fill="white"/>
<path d="M306.084 176.844C306.084 169.113 299.817 162.843 292.092 162.843C299.817 162.843 306.084 156.572 306.084 148.842C306.084 156.572 312.35 162.843 320.076 162.843C312.35 162.843 306.084 169.113 306.084 176.844Z" fill="white"/>
<path d="M354.391 68.8203C354.391 61.5765 348.518 55.7007 341.279 55.7007C348.518 55.7007 354.391 49.8249 354.391 42.5811C354.391 49.8249 360.263 55.7007 367.502 55.7007C360.263 55.7007 354.391 61.5765 354.391 68.8203Z" fill="#FCF0E3"/>
<path d="M398.22 77.6802C398.22 73.6864 394.981 70.4456 390.99 70.4456C394.981 70.4456 398.22 67.2047 398.22 63.2109C398.22 67.2047 401.459 70.4456 405.45 70.4456C401.459 70.4456 398.22 73.6864 398.22 77.6802Z" fill="white"/>
<path d="M176.595 53.5352H96.0375C87.7523 53.5352 81.0361 60.2556 81.0361 68.5461C81.0361 76.8365 87.7523 83.557 96.0375 83.557H162.429L171.558 91.8841V83.557H176.595C184.88 83.557 191.596 76.8365 191.596 68.5461C191.596 60.2556 184.88 53.5352 176.595 53.5352Z" fill="#21B546"/>
<path d="M103.305 66.4795C104.351 65.6073 105.021 64.2944 105.021 62.8163C105.021 60.1905 102.893 58.0605 100.268 58.0605C97.6444 58.0605 95.5157 60.1905 95.5157 62.8163C95.5157 64.2853 96.1855 65.6073 97.2315 66.4795C93.855 67.7189 91.4512 70.9507 91.4512 74.7608C91.4512 79.6359 109.095 79.6359 109.095 74.7608C109.095 70.9598 106.682 67.7189 103.315 66.4795H103.305Z" fill="#FFB54A"/>
<path d="M177.603 61.6046H119.883C119.626 61.6046 119.424 61.4026 119.424 61.1456C119.424 60.8885 119.626 60.6865 119.883 60.6865H177.603C177.86 60.6865 178.062 60.8885 178.062 61.1456C178.062 61.4026 177.86 61.6046 177.603 61.6046Z" fill="white"/>
<path d="M168.649 75.1554H119.884C119.627 75.1554 119.425 74.9534 119.425 74.6964C119.425 74.4393 119.627 74.2373 119.884 74.2373H168.649C168.906 74.2373 169.108 74.4393 169.108 74.6964C169.108 74.9534 168.906 75.1554 168.649 75.1554Z" fill="white"/>
<path d="M155.363 68.8117H119.874C119.617 68.8117 119.415 68.6097 119.415 68.3526C119.415 68.0955 119.617 67.8936 119.874 67.8936H155.363C155.62 67.8936 155.822 68.0955 155.822 68.3526C155.822 68.6097 155.62 68.8117 155.363 68.8117Z" fill="white"/>
<path d="M177.604 68.8117H159.795C159.538 68.8117 159.336 68.6097 159.336 68.3526C159.336 68.0955 159.538 67.8936 159.795 67.8936H177.604C177.86 67.8936 178.062 68.0955 178.062 68.3526C178.062 68.6097 177.86 68.8117 177.604 68.8117Z" fill="white"/>
<path d="M105.973 73.3838C105.625 73.3838 105.267 73.2461 105.001 72.9799L101.542 69.5187C101 68.977 101 68.1048 101.542 67.5723C102.083 67.0306 102.955 67.0306 103.487 67.5723L105.973 70.0603L112.644 63.3858C113.185 62.8441 114.057 62.8441 114.589 63.3858C115.13 63.9274 115.13 64.7996 114.589 65.3321L106.946 72.9891C106.68 73.2553 106.322 73.393 105.973 73.393V73.3838Z" fill="white"/>
<path d="M535.884 131.711H618.534C627.03 131.711 633.929 138.606 633.929 147.117C633.929 155.627 627.039 162.522 618.534 162.522H550.418L541.05 171.07V162.522H535.884C527.388 162.522 520.488 155.627 520.488 147.117C520.488 138.606 527.379 131.711 535.884 131.711Z" fill="#FFB54A"/>
<path d="M616.68 144.849C617.726 143.976 618.396 142.664 618.396 141.185C618.396 138.56 616.268 136.43 613.643 136.43C611.019 136.43 608.891 138.56 608.891 141.185C608.891 142.654 609.561 143.976 610.606 144.849C607.23 146.088 604.826 149.32 604.826 153.13C604.826 158.005 622.47 158.005 622.47 153.13C622.47 149.329 620.057 146.088 616.69 144.849H616.68Z" fill="#21B546"/>
<path d="M623.929 147.502H621.653V145.225C621.653 144.977 621.451 144.775 621.204 144.775H619.121C618.873 144.775 618.671 144.977 618.671 145.225V147.502H616.396C616.148 147.502 615.946 147.704 615.946 147.952V150.036C615.946 150.284 616.148 150.486 616.396 150.486H618.671V152.763C618.671 153.011 618.873 153.213 619.121 153.213H621.204C621.451 153.213 621.653 153.011 621.653 152.763V150.486H623.929C624.176 150.486 624.378 150.284 624.378 150.036V147.952C624.378 147.704 624.176 147.502 623.929 147.502Z" fill="white"/>
<path d="M597.605 140.901H539.885C539.628 140.901 539.426 140.7 539.426 140.442C539.426 140.185 539.628 139.983 539.885 139.983H597.605C597.862 139.983 598.064 140.185 598.064 140.442C598.064 140.7 597.862 140.901 597.605 140.901Z" fill="white"/>
<path d="M588.65 154.452H539.885C539.628 154.452 539.426 154.25 539.426 153.993C539.426 153.736 539.628 153.534 539.885 153.534H588.65C588.907 153.534 589.109 153.736 589.109 153.993C589.109 154.25 588.907 154.452 588.65 154.452Z" fill="white"/>
<path d="M575.374 148.1H539.885C539.628 148.1 539.426 147.898 539.426 147.641C539.426 147.384 539.628 147.182 539.885 147.182H575.374C575.631 147.182 575.833 147.384 575.833 147.641C575.833 147.898 575.631 148.1 575.374 148.1Z" fill="white"/>
<path d="M597.605 148.1H579.796C579.539 148.1 579.337 147.898 579.337 147.641C579.337 147.384 579.539 147.182 579.796 147.182H597.605C597.862 147.182 598.063 147.384 598.063 147.641C598.063 147.898 597.862 148.1 597.605 148.1Z" fill="white"/>
<path d="M431.993 42.9307H488.925C494.778 42.9307 499.531 47.6772 499.531 53.5439C499.531 59.4105 494.788 64.1571 488.925 64.1571H431.993C426.139 64.1571 421.387 59.4105 421.387 53.5439C421.387 47.6772 426.13 42.9307 431.993 42.9307Z" fill="#21B546"/>
<path d="M482.503 50.046H438.361C438.104 50.046 437.902 49.844 437.902 49.587C437.902 49.3299 438.104 49.1279 438.361 49.1279H482.503C482.759 49.1279 482.961 49.3299 482.961 49.587C482.961 49.844 482.759 50.046 482.503 50.046Z" fill="white"/>
<path d="M475.648 58.0704H438.351C438.094 58.0704 437.893 57.8685 437.893 57.6114C437.893 57.3543 438.094 57.1523 438.351 57.1523H475.648C475.905 57.1523 476.107 57.3543 476.107 57.6114C476.107 57.8685 475.905 58.0704 475.648 58.0704Z" fill="white"/>
<path d="M465.491 54.3156H438.351C438.094 54.3156 437.893 54.1136 437.893 53.8565C437.893 53.5994 438.094 53.3975 438.351 53.3975H465.491C465.748 53.3975 465.95 53.5994 465.95 53.8565C465.95 54.1136 465.748 54.3156 465.491 54.3156Z" fill="white"/>
<path d="M482.502 54.3156H468.886C468.63 54.3156 468.428 54.1136 468.428 53.8565C468.428 53.5994 468.63 53.3975 468.886 53.3975H482.502C482.759 53.3975 482.961 53.5994 482.961 53.8565C482.961 54.1136 482.759 54.3156 482.502 54.3156Z" fill="white"/>
<path d="M46.1068 193.343H96.7351C101.937 193.343 106.167 197.566 106.167 202.781C106.167 207.996 101.947 212.219 96.7351 212.219H46.1068C40.9045 212.219 36.6748 207.996 36.6748 202.781C36.6748 197.566 40.8954 193.343 46.1068 193.343Z" fill="#FFB54A"/>
<path d="M91.0195 199.724H51.7683C51.5114 199.724 51.3096 199.522 51.3096 199.265C51.3096 199.008 51.5114 198.806 51.7683 198.806H91.0195C91.2764 198.806 91.4782 199.008 91.4782 199.265C91.4782 199.522 91.2764 199.724 91.0195 199.724Z" fill="white"/>
<path d="M84.9272 206.858H51.7683C51.5114 206.858 51.3096 206.656 51.3096 206.399C51.3096 206.141 51.5114 205.939 51.7683 205.939H84.9272C85.1841 205.939 85.386 206.141 85.386 206.399C85.386 206.656 85.1841 206.858 84.9272 206.858Z" fill="white"/>
<path d="M75.8989 203.516H51.7683C51.5114 203.516 51.3096 203.314 51.3096 203.057C51.3096 202.8 51.5114 202.598 51.7683 202.598H75.8989C76.1558 202.598 76.3576 202.8 76.3576 203.057C76.3576 203.314 76.1558 203.516 75.8989 203.516Z" fill="white"/>
<path d="M91.0191 203.516H78.908C78.6511 203.516 78.4492 203.314 78.4492 203.057C78.4492 202.8 78.6511 202.598 78.908 202.598H91.0191C91.276 202.598 91.4779 202.8 91.4779 203.057C91.4779 203.314 91.276 203.516 91.0191 203.516Z" fill="white"/>
<path d="M420.286 244.352H330.333C330.076 244.352 329.874 244.15 329.874 243.893C329.874 243.636 330.076 243.434 330.333 243.434H420.286C420.543 243.434 420.744 243.636 420.744 243.893C420.744 244.15 420.543 244.352 420.286 244.352Z" fill="white"/>
<path d="M420.285 265.468H344.288C344.031 265.468 343.829 265.266 343.829 265.009C343.829 264.752 344.031 264.55 344.288 264.55H420.285C420.542 264.55 420.744 264.752 420.744 265.009C420.744 265.266 420.542 265.468 420.285 265.468Z" fill="white"/>
<path d="M420.286 255.58H364.987C364.73 255.58 364.528 255.378 364.528 255.121C364.528 254.864 364.73 254.662 364.987 254.662H420.286C420.542 254.662 420.744 254.864 420.744 255.121C420.744 255.378 420.542 255.58 420.286 255.58Z" fill="white"/>
<path d="M358.088 255.58H330.333C330.076 255.58 329.874 255.378 329.874 255.121C329.874 254.864 330.076 254.662 330.333 254.662H358.088C358.344 254.662 358.546 254.864 358.546 255.121C358.546 255.378 358.344 255.58 358.088 255.58Z" fill="white"/>
<path d="M318.552 277.853H228.599C228.342 277.853 228.141 277.651 228.141 277.394C228.141 277.137 228.342 276.935 228.599 276.935H318.552C318.809 276.935 319.011 277.137 319.011 277.394C319.011 277.651 318.809 277.853 318.552 277.853Z" fill="white"/>
<path d="M304.597 298.969H228.599C228.342 298.969 228.141 298.767 228.141 298.51C228.141 298.253 228.342 298.051 228.599 298.051H304.597C304.854 298.051 305.056 298.253 305.056 298.51C305.056 298.767 304.854 298.969 304.597 298.969Z" fill="white"/>
<path d="M283.898 289.081H228.599C228.342 289.081 228.141 288.879 228.141 288.622C228.141 288.365 228.342 288.163 228.599 288.163H283.898C284.155 288.163 284.357 288.365 284.357 288.622C284.357 288.879 284.155 289.081 283.898 289.081Z" fill="white"/>
<path d="M318.552 289.081H290.798C290.541 289.081 290.339 288.879 290.339 288.622C290.339 288.365 290.541 288.163 290.798 288.163H318.552C318.809 288.163 319.011 288.365 319.011 288.622C319.011 288.879 318.809 289.081 318.552 289.081Z" fill="white"/>
<path d="M386.366 192.553L386.393 192.452L399.679 146.207L399.624 146.161C400.22 144.995 401.771 142.48 404.936 140.267C410.414 136.448 411.065 130.113 411.065 130.113C413.992 127.285 417.286 124.861 420.268 122.098C420.58 121.813 420.901 121.492 420.993 121.079C421.093 120.62 420.882 120.142 420.616 119.748C419.075 117.461 416.24 117.131 413.891 118.187C412.515 118.802 411.276 119.683 410.12 120.647C409.57 121.106 407.698 122.364 407.129 123.209L417.699 100.633C418.635 98.6313 418.02 96.336 416.332 95.5465C415.488 95.1517 414.524 95.1976 413.662 95.6016C413.111 95.8586 412.616 96.2626 412.194 96.7767C412.23 96.6115 412.249 96.5105 412.249 96.5105C399.871 86.0992 384.604 121.538 384.604 121.538L380.273 131.775L343.518 199.971C338.325 209.868 342.325 222.097 352.372 227C352.519 227.073 352.665 227.128 352.812 227.202C355.758 228.9 359.18 229.883 362.822 229.883H435.159L450.747 192.81L386.375 192.553H386.366Z" fill="#FEC29E"/>
<path opacity="0.17" d="M373.979 229.864C371.63 229.79 373.052 229.836 373.979 229.864V229.864Z" fill="#FF887C"/>
<path opacity="0.17" d="M373.987 229.864C374.318 229.873 374.584 229.883 374.584 229.883C374.364 229.883 374.171 229.873 373.987 229.864Z" fill="#FF887C"/>
<path opacity="0.17" d="M386.402 192.452L384.301 199.778C383.751 201.807 383.127 203.992 382.448 206.223L379.906 215.074C379.557 216.212 379.108 217.286 378.585 218.305C376.392 224.86 374.594 229.882 374.594 229.882L400.605 192.608C394.137 192.608 392.65 192.452 386.402 192.442V192.452Z" fill="#FF887C"/>
<path d="M396.871 125.522C396.78 125.522 396.679 125.495 396.596 125.431C396.394 125.284 396.348 124.99 396.495 124.788C401.11 118.527 407.322 121.905 407.377 121.942C407.597 122.07 407.68 122.346 407.551 122.566C407.432 122.787 407.148 122.869 406.927 122.741C406.698 122.612 401.358 119.729 397.229 125.33C397.137 125.449 397 125.513 396.862 125.513L396.871 125.522Z" fill="#FB8E77"/>
<path d="M412.46 96.694C410.551 99.0995 408.781 101.624 407.202 104.259C406.423 105.572 405.707 106.931 405.12 108.326C404.532 109.713 404.065 111.2 404.138 112.596V112.623C404.156 112.88 403.964 113.091 403.707 113.11C403.45 113.128 403.239 112.926 403.22 112.678C403.22 112.678 403.22 112.678 403.22 112.669C403.175 110.961 403.734 109.437 404.358 108.005C405 106.573 405.753 105.205 406.579 103.883C408.23 101.248 410.056 98.7414 412.038 96.3543C412.129 96.235 412.304 96.2258 412.423 96.3176C412.542 96.4094 412.552 96.5839 412.46 96.694Z" fill="#FB8E77"/>
<path d="M409.276 95.3811C408.065 96.2166 406.982 97.3183 406.01 98.4659C405.037 99.6227 404.184 100.881 403.413 102.184C402.661 103.497 401.991 104.865 401.431 106.27C401.129 106.968 400.908 107.693 400.642 108.4L399.982 110.576V110.603C399.899 110.842 399.642 110.98 399.404 110.906C399.165 110.833 399.027 110.576 399.101 110.337L399.817 108.124C400.101 107.399 400.349 106.665 400.661 105.958C401.266 104.525 401.973 103.139 402.771 101.808C403.587 100.486 404.487 99.2096 405.505 98.0344C406.542 96.8684 407.643 95.7759 408.973 94.8853C409.102 94.8027 409.285 94.8303 409.368 94.968C409.45 95.0965 409.423 95.271 409.294 95.3628L409.276 95.3811Z" fill="#FB8E77"/>
<path d="M404.267 95.7397C402.515 97.5759 400.872 99.5681 399.459 101.68C398.762 102.745 398.092 103.828 397.569 104.967C397.037 106.105 396.606 107.289 396.413 108.492C396.377 108.749 396.138 108.924 395.89 108.887C395.642 108.85 395.468 108.611 395.505 108.364C395.505 108.364 395.505 108.364 395.505 108.354C395.753 107.023 396.248 105.784 396.826 104.609C397.404 103.433 398.12 102.341 398.863 101.267C400.359 99.1458 402.056 97.1903 403.891 95.3541C403.992 95.2531 404.166 95.2531 404.267 95.3541C404.368 95.4551 404.368 95.6203 404.267 95.7305V95.7397Z" fill="#FB8E77"/>
<path d="M553.316 259.886L535.571 211.484C533.461 200.862 523.359 192.81 511.211 192.81L461.647 192.415L405.808 192.626V229.873H423.139L414.194 327.036L537.159 327.734L536.47 261.943L553.316 259.877V259.886Z" fill="#21B546"/>
<path opacity="0.05" d="M461.556 192.837L461.657 192.424L405.817 192.635V229.882H423.149L423.241 228.9C423.241 209.243 440.325 193.268 461.565 192.837H461.556Z" fill="#1B1B25"/>
<path opacity="0.18" d="M390.99 138.927C390.99 138.927 394.128 165.561 394.312 164.927C394.495 164.285 399.688 146.207 399.688 146.207L390.99 138.927Z" fill="#FF887C"/>
<path d="M464.18 273.786L459.492 250.117L455.867 231.856C455.445 229.708 453.335 228.303 451.188 228.725L433.058 232.324C430.911 232.747 429.507 234.858 429.929 237.007L433.572 255.387L436.462 269.966L438.242 278.936C438.664 281.085 440.774 282.489 442.921 282.067L453.629 279.937L461.051 278.468C463.198 278.046 464.602 275.934 464.18 273.786Z" fill="#1B1B25"/>
<path d="M560.666 295.599L552.491 259.986L515.331 264.54L517.368 273.602L517.176 273.556L476.778 263.549L476.741 263.594C475.631 263.034 473.53 261.703 471.685 258.949C468.3 253.881 462.611 253.743 462.611 253.743C461.519 252.596 460.492 251.365 459.483 250.126L460.428 254.9L460.189 255.029C457.62 256.387 454.721 256.993 451.821 256.764C446.463 256.342 437.701 255.662 434.058 255.378C432.948 255.295 431.884 255.882 431.398 256.892C426.195 267.827 448.518 277.834 453.62 279.946C453.684 279.973 453.739 279.992 453.803 280.019C453.877 280.047 453.95 280.074 454.014 280.102C454.088 280.129 454.143 280.157 454.207 280.185C454.262 280.212 454.326 280.23 454.372 280.249C454.436 280.276 454.482 280.295 454.528 280.313C454.546 280.313 454.574 280.331 454.583 280.341C454.629 280.359 454.656 280.368 454.656 280.368L463.391 283.646L532.553 317.716C533.195 318.029 533.847 318.295 534.498 318.524C537.856 320.058 541.71 320.563 545.582 319.672C556.381 317.193 563.125 306.415 560.647 295.618L560.666 295.599Z" fill="#FEC29E"/>
<path opacity="0.17" d="M558.032 284.114L515.331 264.531C516.753 270.747 515.927 268.002 517.184 273.547L520.093 274.263C532.388 275.089 558.041 284.114 558.041 284.114H558.032Z" fill="#FF887C"/>
<path opacity="0.35" d="M511.881 264.99C511.67 264.99 511.477 264.844 511.432 264.623L506.092 238.76C506.037 238.512 506.202 238.265 506.45 238.219C506.688 238.164 506.945 238.329 506.991 238.577L512.239 264.017L530.204 261.731C530.452 261.694 530.681 261.878 530.718 262.126C530.754 262.374 530.571 262.603 530.323 262.64L511.936 264.981C511.936 264.981 511.9 264.981 511.881 264.981V264.99Z" fill="#1B1B25"/>
<path opacity="0.17" d="M558.317 285.593C558.354 285.767 558.382 285.905 558.391 285.96C558.391 285.923 558.363 285.804 558.317 285.593Z" fill="#FF887C"/>
<path opacity="0.17" d="M558.032 284.114C558.032 284.114 558.133 284.61 558.225 285.097C558.17 284.84 558.115 284.527 558.032 284.114Z" fill="#FF887C"/>
<path opacity="0.17" d="M558.225 285.097C558.261 285.299 558.298 285.464 558.326 285.583C558.298 285.436 558.261 285.271 558.225 285.097Z" fill="#FF887C"/>
<path d="M507.67 96.9234C506.541 89.1288 499.43 83.5835 491.549 84.474C489.457 84.7127 487.521 85.3829 485.815 86.3837C483.282 82.2339 478.502 79.6907 473.355 80.2691C470.41 80.5996 467.822 81.9125 465.85 83.8222C463.005 82.3991 459.739 81.7381 456.344 82.1237C447.013 83.1795 440.306 91.6077 441.361 100.936C441.857 105.306 443.967 109.088 447.022 111.778L443.563 130.25C442.572 135.557 446.059 140.652 451.362 141.644L492.301 149.31C497.605 150.302 502.697 146.813 503.688 141.506L510.395 105.655C511.009 102.349 509.89 99.1177 507.661 96.9143L507.67 96.9234Z" fill="#1B1B25"/>
<path d="M447.995 107.032C447.839 107.032 447.692 106.958 447.61 106.82C440.297 95.2432 450.372 87.8158 450.473 87.7423C450.674 87.5954 450.968 87.6413 451.115 87.8433C451.262 88.0453 451.216 88.3391 451.014 88.486C450.629 88.7706 441.545 95.4911 448.39 106.334C448.527 106.545 448.463 106.83 448.243 106.967C448.17 107.013 448.078 107.041 447.995 107.041V107.032Z" fill="#FCF0E3"/>
<path d="M501.046 133.133L500.147 132.968L491.109 113.532C488.889 113.21 486.797 112.393 484.999 111.163C483.265 113.045 480.879 114.34 478.145 114.643C474.851 115.019 471.732 113.89 469.465 111.815C466.942 114.028 463.758 115.533 460.171 115.937C456.07 116.405 452.143 115.359 448.95 113.266L442.656 146.914C441.784 151.559 442.738 156.122 444.986 159.887C447.225 165.423 452.033 169.775 458.226 171.198V193.425C458.226 201.146 464.538 207.462 472.255 207.462H476.677C484.393 207.462 490.706 201.146 490.706 193.425V168.195C492.981 165.698 494.624 162.567 495.293 158.996L496.44 152.854L497.339 153.019C502.652 154.011 507.817 150.476 508.808 145.16L508.909 144.619C509.9 139.303 506.368 134.134 501.055 133.142L501.046 133.133Z" fill="#FEC29E"/>
<path opacity="0.32" d="M494.348 152.064L493.531 156.444C491.641 166.561 481.916 173.217 471.805 171.326L457.519 168.645C452.06 167.626 447.619 164.303 444.977 159.877C447.307 165.643 452.418 170.142 458.978 171.372L459.547 171.482C461.813 176.192 466.63 179.47 472.172 179.47H476.649C483.264 179.47 488.843 174.815 490.292 168.618C492.779 166.047 494.559 162.76 495.265 158.987L496.412 152.845L494.33 152.064H494.348Z" fill="#FF887C"/>
<path d="M501.833 146.318C501.732 146.318 501.631 146.29 501.548 146.217L497.979 143.444C497.869 143.361 497.805 143.233 497.805 143.104C497.805 142.967 497.851 142.838 497.951 142.746L502.356 138.587C502.539 138.413 502.833 138.422 503.007 138.606C503.181 138.789 503.172 139.083 502.989 139.257L498.979 143.049L502.126 145.491C502.328 145.647 502.365 145.932 502.209 146.134C502.117 146.253 501.979 146.308 501.851 146.308L501.833 146.318Z" fill="#FB8E77"/>
<path d="M479.126 129.232C478.437 129.213 477.731 128.791 477.015 128.433C476.309 128.047 475.593 127.689 474.951 127.386C474.318 127.093 473.575 126.771 472.822 126.477C472.088 126.165 471.308 125.89 470.859 125.376C470.418 124.889 470.51 124.127 471.529 123.613C472.501 123.108 474.492 122.979 476.602 123.962C478.704 124.944 479.869 126.542 480.08 127.607C480.318 128.708 479.768 129.259 479.107 129.232H479.126Z" fill="#1B1B25"/>
<path d="M449.939 126.717C450.535 127.047 451.352 127.093 452.15 127.176C452.948 127.249 453.747 127.332 454.444 127.433C455.141 127.534 455.94 127.662 456.719 127.818C457.508 127.956 458.307 128.14 458.958 127.984C459.582 127.846 459.912 127.231 459.316 126.349C458.756 125.486 457.132 124.412 454.829 124.082C452.526 123.76 450.71 124.357 449.967 125.036C449.177 125.734 449.361 126.414 449.93 126.717H449.939Z" fill="#1B1B25"/>
<path d="M472.385 137.077L472.439 137.087C473.057 137.203 473.651 136.796 473.767 136.178L474.039 134.725C474.155 134.107 473.748 133.512 473.13 133.396L473.076 133.386C472.459 133.271 471.864 133.678 471.748 134.296L471.476 135.749C471.361 136.367 471.768 136.961 472.385 137.077Z" fill="#1B1B25"/>
<path d="M452.61 133.882L452.664 133.892C453.282 134.008 453.876 133.601 453.992 132.983L454.264 131.53C454.379 130.912 453.973 130.317 453.355 130.201L453.301 130.191C452.683 130.075 452.089 130.482 451.973 131.1L451.701 132.553C451.585 133.171 451.992 133.766 452.61 133.882Z" fill="#1B1B25"/>
<path opacity="0.17" d="M477.267 142.781L473.21 142.325C472.435 142.237 471.886 141.538 471.972 140.772L471.981 140.69C472.068 139.914 472.767 139.364 473.533 139.451L477.59 139.908C478.365 139.995 478.914 140.694 478.828 141.46L478.819 141.543C478.732 142.318 478.033 142.868 477.267 142.781Z" fill="#FF887C"/>
<path opacity="0.17" d="M450.488 138.562L446.431 138.105C445.656 138.018 445.106 137.318 445.192 136.552L445.202 136.47C445.289 135.694 445.988 135.145 446.754 135.231L450.811 135.688C451.586 135.775 452.135 136.474 452.049 137.241L452.041 137.314C451.954 138.089 451.255 138.639 450.489 138.553L450.488 138.562Z" fill="#FF887C"/>
<path d="M458.252 158.905C458.114 158.905 457.967 158.841 457.885 158.712C457.738 158.51 457.784 158.217 457.986 158.07C459.913 156.665 462.06 157.454 462.931 158.07C463.142 158.217 463.188 158.501 463.041 158.703C462.894 158.914 462.61 158.96 462.399 158.813C462.316 158.758 460.38 157.445 458.518 158.813C458.435 158.868 458.344 158.905 458.252 158.905Z" fill="#FB8E77"/>
<path d="M461.353 145.858L472.079 144.325L470.904 148.053C470.152 150.44 467.941 152.065 465.436 152.065C463.491 152.065 461.858 150.596 461.647 148.659L461.344 145.858H461.353Z" fill="white"/>
<path d="M464.133 142.049C464.133 142.049 464.059 142.049 464.013 142.03L460.683 141.167C459.27 140.8 458.132 139.818 457.563 138.477C456.994 137.137 457.068 135.631 457.774 134.364L462.839 125.238C462.967 125.018 463.243 124.935 463.463 125.064C463.683 125.183 463.766 125.468 463.637 125.688L458.573 134.814C458.004 135.842 457.939 137.045 458.407 138.128C458.866 139.203 459.784 139.992 460.921 140.286L464.252 141.149C464.5 141.213 464.646 141.461 464.582 141.709C464.527 141.92 464.344 142.049 464.142 142.049H464.133Z" fill="#FB8E77"/>
<path d="M308.324 208.06L271.568 139.863L267.237 129.626C267.237 129.626 251.97 94.1787 239.593 104.599C239.593 104.599 239.611 104.7 239.648 104.865C239.226 104.351 238.73 103.947 238.18 103.69C237.317 103.286 236.354 103.24 235.51 103.635C233.822 104.425 233.207 106.711 234.143 108.721L244.713 131.297C244.144 130.462 242.272 129.195 241.721 128.736C240.565 127.772 239.336 126.891 237.95 126.275C235.592 125.22 232.767 125.55 231.225 127.836C230.959 128.231 230.748 128.699 230.849 129.167C230.941 129.581 231.262 129.902 231.574 130.187C234.556 132.95 237.859 135.374 240.776 138.202C240.776 138.202 241.428 144.536 246.905 148.356C250.071 150.568 251.621 153.075 252.218 154.25L252.163 154.296L265.476 200.641L246.034 200.898V237.971H289.038C292.689 237.971 296.112 236.989 299.057 235.281C299.194 235.217 299.341 235.153 299.479 235.088C309.516 230.186 313.526 217.957 308.333 208.06H308.324Z" fill="#FEC29E"/>
<path opacity="0.17" d="M277.248 237.971C277.248 237.971 267.257 211.071 265.541 200.531C258.917 200.531 257.916 200.825 251.292 200.825L277.248 237.962V237.971Z" fill="#FF887C"/>
<path d="M254.962 133.611C254.824 133.611 254.686 133.547 254.595 133.427C250.466 127.827 245.126 130.71 244.897 130.838C244.676 130.958 244.401 130.884 244.273 130.664C244.153 130.444 244.227 130.168 244.447 130.04C244.511 130.003 250.714 126.624 255.329 132.886C255.475 133.088 255.439 133.381 255.228 133.528C255.145 133.593 255.053 133.62 254.952 133.62L254.962 133.611Z" fill="#FB8E77"/>
<path d="M239.776 104.406C240.886 105.517 241.905 106.701 242.868 107.931C243.822 109.162 244.721 110.447 245.529 111.797C246.318 113.155 247.024 114.56 247.584 116.038C248.116 117.525 248.492 119.086 248.612 120.693C248.63 120.95 248.447 121.17 248.19 121.189C247.933 121.207 247.713 121.023 247.694 120.766V120.748C247.602 119.251 247.281 117.773 246.804 116.332C246.29 114.9 245.639 113.513 244.896 112.173C244.134 110.842 243.281 109.566 242.363 108.326C241.437 107.096 240.455 105.902 239.4 104.801C239.299 104.681 239.299 104.516 239.4 104.406C239.51 104.305 239.675 104.305 239.785 104.406H239.776Z" fill="#FB8E77"/>
<path d="M242.876 102.643C244.372 103.414 245.473 104.571 246.491 105.783C247.501 107.004 248.372 108.335 249.125 109.713C249.904 111.09 250.547 112.522 251.161 113.973L251.996 116.176L252.74 118.416C252.822 118.655 252.684 118.921 252.446 118.995C252.207 119.077 251.941 118.939 251.868 118.701V118.682L251.171 116.47L250.391 114.285C249.813 112.853 249.216 111.429 248.473 110.071C247.767 108.703 246.932 107.399 245.977 106.196C245.032 105.012 243.922 103.855 242.647 103.167L242.601 103.139C242.463 103.066 242.408 102.891 242.491 102.753C242.564 102.616 242.729 102.57 242.867 102.634L242.876 102.643Z" fill="#FB8E77"/>
<path d="M247.915 103.424C248.943 104.259 249.86 105.177 250.713 106.16C251.576 107.142 252.365 108.179 253.071 109.272C253.787 110.364 254.429 111.503 254.961 112.706C255.521 113.89 255.934 115.139 256.319 116.396C256.393 116.635 256.255 116.892 256.017 116.966C255.778 117.039 255.521 116.901 255.448 116.653V116.626C255.108 115.414 254.741 114.193 254.227 113.036C253.741 111.87 253.145 110.741 252.475 109.667C251.814 108.583 251.071 107.546 250.255 106.573C249.447 105.6 248.557 104.663 247.603 103.855H247.594C247.484 103.754 247.465 103.58 247.566 103.47C247.658 103.359 247.823 103.341 247.933 103.433L247.915 103.424Z" fill="#FB8E77"/>
<path opacity="0.18" d="M250.493 151.67L264.696 149.916L255.916 167.397C255.916 167.397 253.301 154.396 250.493 151.67Z" fill="#FF887C"/>
<path d="M193.415 200.898V200.917C193.195 200.917 192.984 200.898 192.764 200.898H147.879C138.135 200.898 129.822 207.022 126.565 215.625L126.501 215.808C126.492 215.836 126.482 215.863 126.464 215.9L107.38 267.966L125.097 270.132V327.954H221.537L228.748 237.962H245.52V200.715L193.415 200.898Z" fill="white"/>
<path opacity="0.05" d="M246.025 200.715L194.791 200.926C214.004 201.734 229.326 217.562 229.326 236.98L229.244 237.962H246.016V200.715H246.025Z" fill="#1B1B25"/>
<path d="M228.124 240.413L209.994 236.814C207.847 236.392 205.746 237.797 205.314 239.945L201.69 258.206L197.002 281.875C196.58 284.023 197.983 286.125 200.13 286.557L207.553 288.026L218.26 290.156C220.407 290.578 222.509 289.173 222.94 287.025L224.72 278.055L227.61 263.476L231.252 245.095C231.674 242.947 230.271 240.845 228.124 240.413Z" fill="#1B1B25"/>
<path d="M230.023 264.789C229.794 264.312 229.436 263.936 229.005 263.679C228.931 263.568 228.867 263.449 228.784 263.339C228.784 263.339 228.619 263.357 228.353 263.394C228.041 263.302 227.702 263.256 227.371 263.284C223.729 263.568 214.967 264.248 209.608 264.67C206.709 264.9 203.81 264.294 201.241 262.935L200.809 262.705L201.699 258.216C200.736 259.391 199.763 260.557 198.736 261.65C198.213 261.677 195.222 261.943 192.423 264.027C191.387 264.762 190.368 265.735 189.497 267.03C188.405 268.664 187.221 269.793 186.212 270.555C185.615 270.987 185.092 271.29 184.698 271.482L184.661 271.436L144.263 281.444L144.08 281.49L146.126 272.391L108.948 267.883L100.773 303.496C98.2959 314.302 105.04 325.072 115.839 327.551C119.711 328.441 123.573 327.936 126.922 326.403C127.574 326.173 128.225 325.898 128.867 325.595L197.25 291.91L206.516 288.43C206.516 288.43 206.893 288.284 207.544 288.017L207.406 287.99C211.636 286.264 235.354 276.009 230.014 264.771L230.023 264.789Z" fill="#FEC29E"/>
<path opacity="0.17" d="M102.874 293.646C102.837 293.838 102.81 293.958 102.801 294.013C102.81 293.948 102.837 293.811 102.874 293.646Z" fill="#FF887C"/>
<path opacity="0.17" d="M144.007 281.636C144.842 277.78 144.603 278.111 145.869 272.584L103.159 292.213C103.159 292.213 107.389 290.937 113.233 289.385C113.775 289.183 114.325 289.009 114.894 288.853L144.007 281.646V281.636Z" fill="#FF887C"/>
<path opacity="0.17" d="M102.985 293.122C102.948 293.306 102.911 293.489 102.884 293.645C102.911 293.508 102.948 293.333 102.985 293.122Z" fill="#FF887C"/>
<path opacity="0.17" d="M102.81 294.013C102.8 294.067 102.8 294.067 102.81 294.013V294.013Z" fill="#FF887C"/>
<path opacity="0.17" d="M103.169 292.204C103.095 292.581 103.04 292.865 102.985 293.122C103.077 292.663 103.169 292.204 103.169 292.204Z" fill="#FF887C"/>
<path opacity="0.35" d="M149.319 273.034C149.319 273.034 149.282 273.034 149.264 273.034L141.153 272.033C140.905 272.005 140.722 271.776 140.759 271.519C140.786 271.271 141.025 271.087 141.272 271.124L148.943 272.07L153.209 244.811C153.246 244.563 153.484 244.389 153.732 244.426C153.98 244.463 154.154 244.701 154.118 244.949L149.778 272.648C149.741 272.878 149.548 273.034 149.328 273.034H149.319Z" fill="#1B1B25"/>
<path opacity="0.08" d="M158.787 277.817L177.101 277.358C180.514 277.808 185.955 274.723 185.322 271.335L158.787 277.817Z" fill="#FF887C"/>
<path d="M216.554 189.174L210.324 146.767C209.646 142.122 208.297 137.742 206.398 133.693L209.774 133.152C209.774 133.152 207.398 98.7323 168.825 106.949C165.027 106.554 161.118 106.619 157.164 107.206C138.419 109.961 125.464 127.395 128.216 146.152L131.85 170.867C134.602 189.624 152.026 202.588 170.771 199.833L213.27 193.581C215.398 193.269 216.866 191.295 216.554 189.165V189.174Z" fill="#1B1B25"/>
<path d="M190.966 131.803C190.736 131.803 190.544 131.637 190.507 131.408C190.47 131.16 190.644 130.921 190.901 130.894L203.306 129.195C203.407 129.186 203.499 129.131 203.554 129.048C203.591 129.002 203.636 128.911 203.618 128.782C201.609 117.59 191.314 112.431 191.204 112.376C190.975 112.266 190.883 111.99 190.993 111.761C191.103 111.531 191.378 111.439 191.608 111.549C191.718 111.604 202.425 116.957 204.517 128.617C204.581 128.957 204.499 129.296 204.297 129.581C204.095 129.865 203.774 130.058 203.435 130.104L191.03 131.803C191.03 131.803 190.984 131.803 190.966 131.803Z" fill="#FCF0E3"/>
<path d="M202.911 134.253L168.954 139.716L160.715 127.515C162.33 141.121 152.301 149.916 152.301 149.916C152.301 149.916 152.2 149.779 152.017 149.521L151.732 149.577C146.42 150.568 142.888 155.737 143.879 161.053C144.869 166.369 150.035 169.903 155.347 168.912L155.999 168.792C157.164 173.888 159.779 178.313 163.348 181.664V203.441C163.348 211.163 169.661 217.479 177.377 217.479C185.093 217.479 191.406 211.163 191.406 203.441V186.245C196.993 183.675 201.37 179.176 203.865 173.741C203.865 173.741 203.875 173.723 203.884 173.713C206.921 168.627 208.187 162.457 207.012 156.169L202.911 134.253Z" fill="#FEC29E"/>
<path opacity="0.32" d="M186.891 185.575C174.311 187.935 162.164 180.489 158.31 168.618C158.182 168.232 155.97 168.737 156.025 168.976C157.218 174.026 159.861 178.396 163.421 181.719C164.081 188.835 170.1 194.463 177.385 194.463C182.771 194.463 187.459 191.378 189.808 186.897C196.167 184.483 201.158 179.663 203.883 173.704C200.305 179.699 194.286 184.18 186.891 185.566V185.575Z" fill="#FF887C"/>
<path d="M150.715 162.457C150.577 162.457 150.44 162.393 150.348 162.283C150.192 162.081 150.229 161.796 150.431 161.64L153.486 159.272L149.596 155.599C149.412 155.425 149.403 155.131 149.577 154.947C149.752 154.764 150.045 154.755 150.229 154.929L154.514 158.978C154.614 159.07 154.66 159.198 154.66 159.336C154.66 159.474 154.587 159.593 154.486 159.676L151.009 162.375C150.926 162.439 150.825 162.476 150.724 162.476L150.715 162.457Z" fill="#FB8E77"/>
<path d="M175.148 145.721C175.561 145.711 175.983 145.464 176.396 145.243C176.818 145.014 177.24 144.803 177.616 144.619C177.992 144.444 178.432 144.252 178.882 144.077C179.322 143.894 179.781 143.728 180.047 143.425C180.304 143.141 180.258 142.682 179.644 142.379C179.066 142.076 177.882 142.002 176.634 142.581C175.386 143.168 174.698 144.114 174.57 144.747C174.423 145.399 174.753 145.73 175.148 145.711V145.721Z" fill="#1B1B25"/>
<path d="M199.481 141.479C199.086 141.58 198.609 141.46 198.15 141.368C197.682 141.267 197.214 141.176 196.802 141.111C196.389 141.047 195.912 140.992 195.444 140.946C194.976 140.891 194.48 140.863 194.141 140.643C193.81 140.441 193.737 139.991 194.233 139.523C194.71 139.073 195.82 138.678 197.187 138.89C198.545 139.11 199.472 139.826 199.765 140.395C200.086 140.983 199.857 141.387 199.481 141.479Z" fill="#1B1B25"/>
<path d="M185.737 164.716C181.975 164.716 179.461 161.76 179.434 161.723C179.268 161.53 179.296 161.236 179.489 161.08C179.681 160.915 179.975 160.942 180.131 161.135C180.278 161.31 183.755 165.377 188.618 163.128C188.847 163.017 189.123 163.128 189.223 163.348C189.334 163.577 189.223 163.853 189.003 163.954C187.838 164.496 186.737 164.707 185.728 164.707L185.737 164.716Z" fill="#FB8E77"/>
<path d="M188.471 158.307C188.26 158.307 188.068 158.151 188.022 157.94C187.976 157.692 188.132 157.453 188.379 157.398L191.609 156.765C193.618 156.37 194.921 154.414 194.527 152.413C194.38 151.688 193.683 151.22 192.958 151.357C191.26 151.688 189.609 150.586 189.279 148.888L188.499 144.931C188.453 144.683 188.609 144.444 188.857 144.389C189.104 144.343 189.343 144.499 189.398 144.747L190.178 148.704C190.416 149.907 191.582 150.687 192.784 150.448C193.38 150.329 193.976 150.448 194.481 150.788C194.986 151.128 195.325 151.633 195.435 152.229C195.931 154.736 194.297 157.169 191.793 157.665L188.563 158.298C188.563 158.298 188.499 158.298 188.471 158.298V158.307Z" fill="#FB8E77"/>
<path d="M179.332 153.46C178.717 153.579 178.121 153.166 178.011 152.551L177.754 151.192C177.635 150.577 178.048 149.98 178.662 149.87C179.277 149.751 179.873 150.164 179.983 150.779L180.24 152.138C180.36 152.753 179.947 153.35 179.332 153.46Z" fill="#1B1B25"/>
<path d="M198.572 150.338C197.958 150.457 197.361 150.044 197.251 149.429L196.994 148.07C196.875 147.455 197.288 146.858 197.903 146.748C198.517 146.629 199.114 147.042 199.224 147.657L199.481 149.016C199.6 149.631 199.187 150.228 198.572 150.338Z" fill="#1B1B25"/>
<path opacity="0.17" d="M178.534 158.582L174.662 159.014C173.892 159.097 173.194 158.546 173.112 157.775C173.029 157.003 173.58 156.306 174.35 156.223L178.222 155.791C178.993 155.709 179.69 156.26 179.773 157.031C179.855 157.802 179.305 158.5 178.534 158.582Z" fill="#FF887C"/>
<path opacity="0.17" d="M204.582 154.479L200.71 154.91C199.939 154.993 199.242 154.442 199.16 153.671C199.077 152.9 199.627 152.202 200.398 152.119L204.27 151.688C205.041 151.605 205.738 152.156 205.821 152.927C205.903 153.699 205.353 154.396 204.582 154.479Z" fill="#FF887C"/>
<path d="M193.105 174.705C193.013 174.705 192.912 174.677 192.839 174.613C191.031 173.291 189.159 174.567 189.077 174.613C188.866 174.76 188.581 174.705 188.435 174.503C188.288 174.291 188.343 174.007 188.545 173.86C189.398 173.263 191.499 172.492 193.371 173.86C193.573 174.007 193.618 174.301 193.472 174.503C193.38 174.622 193.242 174.695 193.105 174.695V174.705Z" fill="#FB8E77"/>
<path d="M304.03 53.8278C303.158 53.8278 302.516 53.5891 302.103 53.1117C301.69 52.6343 301.479 52.0926 301.479 51.4775C301.479 50.8623 301.681 50.3298 302.103 49.88C302.516 49.4209 303.158 49.1914 304.03 49.1914H328.188C329.059 49.1914 329.702 49.4301 330.114 49.9075C330.527 50.3849 330.738 50.9358 330.738 51.5417C330.738 52.1477 330.527 52.6894 330.114 53.1392C329.702 53.5983 329.059 53.8278 328.188 53.8278H324.664C323.141 53.8278 321.857 53.8094 320.811 53.7635C319.765 53.7176 319.132 53.6809 318.921 53.635V53.8921C319.838 54.2869 320.728 54.9387 321.6 55.8476C322.472 56.7657 323.123 57.9133 323.554 59.3089H328.188C329.059 59.3089 329.702 59.5476 330.114 60.025C330.527 60.5024 330.738 61.0532 330.738 61.6592C330.738 62.2651 330.527 62.8068 330.114 63.2567C329.702 63.7157 329.059 63.9453 328.188 63.9453H323.875C323.655 65.9467 323.114 67.6544 322.242 69.0774C321.371 70.4913 320.315 71.6573 319.077 72.5754C317.838 73.4935 316.462 74.1912 314.966 74.6686C313.462 75.1461 311.994 75.449 310.562 75.5867L325.316 89.7622C326.013 90.4599 326.362 91.2403 326.362 92.1125C326.362 92.9847 326.105 93.6366 325.582 94.2058C325.059 94.775 324.343 95.0504 323.426 95.0504C322.949 95.0504 322.481 94.977 322.022 94.8209C321.563 94.6648 321.095 94.3527 320.618 93.8753L303.25 76.8904C302.773 76.4589 302.424 76.0091 302.204 75.55C301.984 75.091 301.873 74.6227 301.873 74.1453C301.873 73.319 302.139 72.6305 302.653 72.0888C303.176 71.5471 303.846 71.2717 304.681 71.2717H305.525C306.874 71.2717 308.213 71.1523 309.544 70.9136C310.874 70.6749 312.067 70.2618 313.131 69.6742C314.196 69.0866 315.104 68.3338 315.838 67.4157C316.581 66.4976 317.058 65.3499 317.278 63.9544H304.02C303.149 63.9544 302.507 63.7157 302.094 63.2383C301.681 62.7609 301.47 62.2192 301.47 61.6041C301.47 60.989 301.672 60.4565 302.094 60.0066C302.507 59.5476 303.149 59.318 304.02 59.318H316.948C315.82 55.664 312.489 53.8278 306.956 53.8278H304.02H304.03Z" fill="black"/>
<path d="M255.813 37.247C255.437 37.247 255.152 37.146 254.978 36.9348C254.794 36.7236 254.712 36.4941 254.712 36.2279C254.712 35.9616 254.804 35.7321 254.978 35.5301C255.162 35.3281 255.437 35.2363 255.813 35.2363H266.291C266.667 35.2363 266.942 35.3373 267.126 35.5485C267.309 35.7596 267.392 35.9892 267.392 36.2554C267.392 36.5217 267.3 36.7512 267.126 36.9532C266.942 37.1552 266.667 37.247 266.291 37.247H264.759C264.098 37.247 263.538 37.2378 263.089 37.2194C262.639 37.2011 262.364 37.1827 262.272 37.1643V37.2745C262.667 37.4489 263.052 37.7244 263.437 38.1283C263.814 38.5231 264.098 39.0281 264.291 39.634H266.3C266.676 39.634 266.952 39.735 267.135 39.9462C267.319 40.1573 267.401 40.3869 267.401 40.6531C267.401 40.9194 267.309 41.1489 267.135 41.3509C266.952 41.5528 266.676 41.6447 266.3 41.6447H264.428C264.337 42.5169 264.098 43.2513 263.722 43.8665C263.346 44.4816 262.887 44.9865 262.346 45.3813C261.804 45.7761 261.217 46.0791 260.566 46.2902C259.914 46.5014 259.281 46.6299 258.657 46.685L265.052 52.8363C265.355 53.1393 265.502 53.4789 265.502 53.8554C265.502 54.2318 265.392 54.5164 265.162 54.7643C264.933 55.0122 264.621 55.1315 264.227 55.1315C264.015 55.1315 263.814 55.0948 263.621 55.0305C263.419 54.9663 263.217 54.8286 263.015 54.6174L255.483 47.2542C255.272 47.0614 255.125 46.8686 255.033 46.6758C254.941 46.483 254.895 46.2719 254.895 46.0699C254.895 45.7118 255.006 45.418 255.235 45.1793C255.464 44.9406 255.758 44.8213 256.116 44.8213H256.483C257.07 44.8213 257.648 44.7662 258.226 44.6652C258.804 44.5642 259.318 44.3806 259.786 44.1235C260.245 43.8665 260.639 43.5451 260.96 43.1503C261.281 42.7556 261.492 42.2506 261.584 41.6447H255.84C255.464 41.6447 255.18 41.5437 255.006 41.3325C254.822 41.1213 254.739 40.8918 254.739 40.6256C254.739 40.3593 254.831 40.1298 255.006 39.9278C255.189 39.7258 255.464 39.634 255.84 39.634H261.446C260.951 38.0457 259.51 37.2561 257.116 37.2561H255.84L255.813 37.247Z" fill="black"/>
</g>
<defs>
<clipPath id="clip0_9216_8602">
<rect width="634" height="328" fill="white"/>
</clipPath>
</defs>
</svg>
