<svg width="18" height="20" viewBox="0 0 18 20" fill="none" xmlns="http://www.w3.org/2000/svg">
<path d="M0.0790466 0.931641C0.0326029 1.09713 0 1.27468 0 1.47821V18.2348C0 18.4356 0.0313726 18.6122 0.0768936 18.7755L9.42039 9.86548L0.0790466 0.931641Z" fill="white"/>
<path d="M2.1583 0.280712C1.72339 0.0137672 1.29463 -0.0530463 0.932617 0.0391316L10.3152 9.01256L13.0674 6.38858L2.1583 0.280712Z" fill="white"/>
<path d="M17.0887 8.64069L14.1766 7.01025L11.1943 9.85416L14.2326 12.7606L17.0662 11.1945C18.4482 10.4017 17.9434 9.12416 17.0887 8.64069Z" fill="white"/>
<path d="M10.2995 10.7065L0.905273 19.6639C1.27282 19.7675 1.71143 19.706 2.15741 19.4322L13.1006 13.3853L10.2995 10.7065Z" fill="white"/>
</svg>
