<svg width="18" height="18" viewBox="0 0 18 18" fill="none" xmlns="http://www.w3.org/2000/svg">
<path d="M7.01126 10.9887L4.22703 13.773M10.9887 10.9887L13.773 13.773M7.01126 7.01126L4.22703 4.22703M10.9887 7.01126L13.773 4.22703M2.25 9C2.25 12.7279 5.27208 15.75 9 15.75C12.7279 15.75 15.75 12.7279 15.75 9C15.75 5.27208 12.7279 2.25 9 2.25C5.27208 2.25 2.25 5.27208 2.25 9ZM6.1875 9C6.1875 10.5533 7.4467 11.8125 9 11.8125C10.5533 11.8125 11.8125 10.5533 11.8125 9C11.8125 7.4467 10.5533 6.1875 9 6.1875C7.4467 6.1875 6.1875 7.4467 6.1875 9Z" stroke="#21B546" stroke-linecap="round" stroke-linejoin="round"/>
</svg>
