<svg width="18" height="19" viewBox="0 0 18 19" fill="none" xmlns="http://www.w3.org/2000/svg">
<path d="M11.2495 17.4994V12.9993C11.2495 12.8004 11.1704 12.6096 11.0298 12.469C10.8891 12.3283 10.6984 12.2493 10.4995 12.2493H7.49945C7.30054 12.2493 7.10977 12.3283 6.96912 12.469C6.82847 12.6096 6.74945 12.8004 6.74945 12.9993V17.4994C6.74945 17.6983 6.67045 17.889 6.52981 18.0297C6.38918 18.1703 6.19844 18.2494 5.99954 18.2494L1.50009 18.25C1.40159 18.25 1.30406 18.2306 1.21305 18.1929C1.12205 18.1552 1.03936 18.1 0.969703 18.0303C0.900049 17.9607 0.844796 17.878 0.807099 17.787C0.769402 17.696 0.75 17.5985 0.75 17.5V8.83182C0.75 8.72733 0.771834 8.624 0.814101 8.52844C0.856369 8.43288 0.918138 8.34721 0.995448 8.27691L8.49493 1.45803C8.63299 1.3325 8.81287 1.26295 8.99946 1.26294C9.18605 1.26293 9.36594 1.33248 9.504 1.45799L17.0045 8.27691C17.0818 8.3472 17.1436 8.43288 17.1859 8.52845C17.2282 8.62401 17.25 8.72736 17.25 8.83185V17.5C17.25 17.5985 17.2306 17.696 17.1929 17.787C17.1552 17.878 17.1 17.9607 17.0303 18.0304C16.9606 18.1 16.878 18.1552 16.7869 18.1929C16.6959 18.2306 16.5984 18.25 16.4999 18.25L11.9994 18.2494C11.8005 18.2494 11.6097 18.1703 11.4691 18.0297C11.3285 17.889 11.2494 17.6983 11.2495 17.4994V17.4994Z" stroke="#21B546" stroke-width="1.5" stroke-linecap="round" stroke-linejoin="round"/>
</svg>
