<svg width="114" height="21" viewBox="0 0 114 21" fill="none" xmlns="http://www.w3.org/2000/svg">
<path d="M113.738 15.8351C113.266 17.2612 112.42 18.3866 111.198 19.2113C109.976 20.0361 108.509 20.4485 106.799 20.4485C105.577 20.4485 104.503 20.2509 103.578 19.8557C102.653 19.4433 101.876 18.8935 101.247 18.2062C100.619 17.5189 100.148 16.7285 99.8334 15.8351C99.5192 14.9244 99.3621 13.9794 99.3621 13C99.3621 12.0206 99.5192 11.0842 99.8334 10.1907C100.148 9.29725 100.61 8.50688 101.221 7.81959C101.85 7.1323 102.618 6.58248 103.526 6.1701C104.451 5.75773 105.524 5.55155 106.746 5.55155C107.846 5.55155 108.841 5.74055 109.731 6.11856C110.639 6.49657 111.407 7.01203 112.036 7.66495C112.664 8.30069 113.144 9.03952 113.476 9.88145C113.825 10.7234 114 11.6083 114 12.5361C114 12.7766 113.982 13.0172 113.947 13.2577C113.93 13.4811 113.904 13.7131 113.869 13.9536H103.473C103.56 14.366 103.7 14.7612 103.892 15.1392C104.102 15.5172 104.363 15.8522 104.678 16.1443C104.992 16.4364 105.359 16.6684 105.777 16.8402C106.196 17.012 106.676 17.0979 107.218 17.0979C107.759 17.0979 108.274 17.0034 108.763 16.8144C109.269 16.6083 109.653 16.2818 109.915 15.8351H113.738ZM109.836 10.9381C109.644 10.3711 109.312 9.89004 108.841 9.49485C108.387 9.09966 107.768 8.90206 106.982 8.90206C106.179 8.90206 105.516 9.09966 104.992 9.49485C104.468 9.89004 104.075 10.3711 103.814 10.9381H109.836Z" fill="#1B1B1B"/>
<path d="M92.6024 11.2474C93.0738 11.3677 93.6237 11.5137 94.2521 11.6856C94.8806 11.8574 95.4741 12.1065 96.0327 12.433C96.6088 12.7594 97.0976 13.1976 97.4991 13.7474C97.9006 14.2801 98.1014 14.9759 98.1014 15.835C98.1014 16.6254 97.9268 17.3213 97.5777 17.9227C97.246 18.5069 96.8008 18.988 96.2422 19.366C95.701 19.744 95.0813 20.0275 94.383 20.2165C93.6848 20.4055 92.9778 20.5 92.262 20.5C90.5163 20.5 89.1547 20.0962 88.1771 19.2887C87.1995 18.4811 86.6409 17.3643 86.5013 15.9381H89.9053C89.9752 16.5223 90.2021 16.9347 90.5862 17.1753C90.9702 17.3986 91.555 17.5103 92.3406 17.5103C92.8992 17.5103 93.3618 17.4158 93.7284 17.2268C94.095 17.0206 94.2783 16.7457 94.2783 16.4021C94.2783 15.921 94.0688 15.5687 93.6498 15.3454C93.2309 15.122 92.7159 14.9244 92.1049 14.7526C91.5288 14.5808 90.9179 14.4089 90.2719 14.2371C89.626 14.0481 89.0325 13.7904 88.4913 13.4639C87.9502 13.1375 87.4963 12.7165 87.1297 12.201C86.7806 11.6684 86.606 10.9811 86.606 10.1392C86.606 9.34879 86.7631 8.6701 87.0773 8.10309C87.409 7.5189 87.8367 7.0378 88.3604 6.65979C88.9016 6.2646 89.5126 5.9725 90.1934 5.7835C90.8742 5.5945 91.5725 5.49999 92.2882 5.49999C93.2483 5.49999 94.0601 5.62027 94.7234 5.86082C95.3868 6.10137 95.928 6.43642 96.3469 6.86597C96.7834 7.27834 97.1063 7.75945 97.3158 8.30927C97.5253 8.8591 97.6475 9.44329 97.6824 10.0619H94.3307C94.2783 9.51202 94.0775 9.11683 93.7284 8.87628C93.3967 8.61855 92.8992 8.48969 92.2358 8.48969C91.7121 8.48969 91.2757 8.59278 90.9266 8.79896C90.5949 9.00515 90.4291 9.27147 90.4291 9.59793C90.4291 10.0275 90.6385 10.3711 91.0575 10.6289C91.4765 10.8694 91.9914 11.0756 92.6024 11.2474Z" fill="#1B1B1B"/>
<path d="M85.0958 20.0361H81.1942L80.7228 18.6701H80.6443C80.0856 19.2199 79.4397 19.6581 78.7065 19.9845C77.9734 20.2938 77.1878 20.4485 76.3499 20.4485C75.5643 20.4485 74.8224 20.3196 74.1241 20.0619C73.4258 19.8041 72.8149 19.4605 72.2911 19.0309C71.7674 18.5842 71.3572 18.0687 71.0604 17.4845C70.7637 16.8832 70.6415 16.2474 70.6938 15.5773C70.7637 14.6838 70.9906 13.9708 71.3747 13.4381C71.7762 12.8883 72.265 12.4588 72.841 12.1495C73.4171 11.8402 74.0543 11.6168 74.7526 11.4794C75.4683 11.3419 76.184 11.2388 76.8998 11.1701C77.6155 11.0842 78.2876 10.9983 78.916 10.9124C79.5619 10.8093 80.1118 10.646 80.5657 10.4227C80.4261 9.70103 80.1642 9.14261 79.7802 8.74742C79.4136 8.35223 78.8287 8.15464 78.0257 8.15464C77.4497 8.15464 76.9347 8.31787 76.4808 8.64433C76.0269 8.97079 75.8 9.51202 75.8 10.268H71.8984C71.9333 9.59794 72.0991 8.97079 72.3959 8.38659C72.6927 7.8024 73.1029 7.30412 73.6266 6.89175C74.1678 6.4622 74.8049 6.12714 75.5381 5.88659C76.2888 5.62886 77.118 5.5 78.0257 5.5C79.335 5.5 80.4173 5.67182 81.2727 6.01546C82.1456 6.3591 82.8351 6.83161 83.3414 7.43299C83.8651 8.01718 84.2229 8.70446 84.415 9.49484C84.6244 10.2852 84.7292 11.1357 84.7292 12.0464V18.6701L85.0958 20.0361ZM80.7228 12.7423C80.1467 12.8969 79.5183 13.0258 78.8375 13.1289C78.1741 13.2148 77.5457 13.3265 76.9521 13.4639C76.3761 13.6014 75.8785 13.8076 75.4596 14.0825C75.0581 14.3574 74.8311 14.7526 74.7788 15.268C74.7438 15.5601 74.7962 15.8265 74.9359 16.067C75.0755 16.2904 75.2675 16.4794 75.5119 16.634C75.7563 16.7887 76.0356 16.9089 76.3499 16.9948C76.6641 17.0636 76.9783 17.0979 77.2925 17.0979C77.9559 17.0979 78.5058 17.0034 78.9422 16.8144C79.3786 16.6082 79.7278 16.3419 79.9896 16.0155C80.2515 15.689 80.4348 15.3024 80.5395 14.8557C80.6617 14.4089 80.7228 13.945 80.7228 13.4639V12.7423Z" fill="#1B1B1B"/>
<path d="M62.76 17.0979C63.5979 17.0979 64.305 16.866 64.881 16.4021C65.4746 15.921 65.8324 15.311 65.9546 14.5722H69.5944C69.5595 15.4485 69.3674 16.2474 69.0183 16.9691C68.6866 17.6907 68.224 18.3093 67.6305 18.8247C67.037 19.3402 66.3212 19.744 65.4833 20.0361C64.6628 20.311 63.7551 20.4485 62.76 20.4485C61.538 20.4485 60.4644 20.2337 59.5392 19.8041C58.6315 19.3746 57.8808 18.8076 57.2873 18.1031C56.6938 17.3814 56.2486 16.5653 55.9518 15.6546C55.6551 14.7268 55.5067 13.7732 55.5067 12.7938C55.5067 11.8144 55.6638 10.8866 55.978 10.0103C56.3097 9.13402 56.7898 8.36082 57.4182 7.69072C58.0467 7.02061 58.8148 6.48797 59.7225 6.09278C60.6477 5.69759 61.7039 5.49999 62.8909 5.49999C63.7987 5.49999 64.6541 5.63745 65.4571 5.91236C66.2776 6.1701 66.9846 6.5481 67.5781 7.04639C68.1891 7.52749 68.6692 8.11168 69.0183 8.79896C69.3849 9.48625 69.5769 10.2423 69.5944 11.067H65.9023C65.7626 10.4313 65.4571 9.9158 64.9858 9.52061C64.5319 9.10824 63.9296 8.90206 63.179 8.90206C62.5505 8.90206 62.0006 9.03092 61.5293 9.28865C61.0754 9.5292 60.7001 9.84707 60.4033 10.2423C60.1066 10.6203 59.8796 11.0584 59.7225 11.5567C59.5829 12.0378 59.513 12.5189 59.513 13C59.513 13.4296 59.5654 13.8849 59.6702 14.366C59.7924 14.8471 59.9756 15.2938 60.22 15.7062C60.4819 16.1014 60.8223 16.4364 61.2413 16.7113C61.6602 16.9691 62.1665 17.0979 62.76 17.0979Z" fill="#1B1B1B"/>
<path d="M45.3968 5.96392H47.8058V1.65979H51.7598V5.96392H54.5093V8.95361H51.7598V15.2423C51.7598 15.7234 51.8384 16.1443 51.9955 16.5052C52.1526 16.866 52.5104 17.0464 53.0691 17.0464H54.5616V20.0361H51.7598C51.0091 20.0361 50.3807 19.9502 49.8745 19.7784C49.3682 19.6065 48.958 19.3574 48.6437 19.0309C48.347 18.7045 48.1288 18.3179 47.9891 17.8711C47.8669 17.4072 47.8058 16.8832 47.8058 16.299V8.95361H45.3968V5.96392Z" fill="#1B1B1B"/>
<path d="M40.0238 20.0361V0.5H43.9777V20.0361H40.0238Z" fill="#1B1B1B"/>
<path d="M38.1207 20.0361H34.2191L33.7478 18.6701H33.6692C33.1106 19.2199 32.4647 19.6581 31.7315 19.9845C30.9983 20.2938 30.2128 20.4485 29.3748 20.4485C28.5893 20.4485 27.8474 20.3196 27.1491 20.0619C26.4508 19.8041 25.8398 19.4605 25.3161 19.0309C24.7924 18.5842 24.3822 18.0687 24.0854 17.4845C23.7886 16.8832 23.6664 16.2474 23.7188 15.5773C23.7886 14.6838 24.0156 13.9708 24.3996 13.4381C24.8011 12.8883 25.2899 12.4588 25.866 12.1495C26.4421 11.8402 27.0793 11.6168 27.7775 11.4794C28.4933 11.3419 29.209 11.2388 29.9247 11.1701C30.6405 11.0842 31.3126 10.9983 31.941 10.9124C32.5869 10.8093 33.1368 10.646 33.5907 10.4227C33.451 9.70103 33.1892 9.14261 32.8051 8.74742C32.4385 8.35223 31.8537 8.15464 31.0507 8.15464C30.4746 8.15464 29.9596 8.31787 29.5058 8.64433C29.0519 8.97079 28.825 9.51202 28.825 10.268H24.9233C24.9583 9.59794 25.1241 8.97079 25.4209 8.38659C25.7176 7.8024 26.1279 7.30412 26.6516 6.89175C27.1927 6.4622 27.8299 6.12714 28.5631 5.88659C29.3137 5.62886 30.1429 5.5 31.0507 5.5C32.36 5.5 33.4423 5.67182 34.2977 6.01546C35.1705 6.3591 35.8601 6.83161 36.3663 7.43299C36.89 8.01718 37.2479 8.70446 37.4399 9.49484C37.6494 10.2852 37.7541 11.1357 37.7541 12.0464V18.6701L38.1207 20.0361ZM33.7478 12.7423C33.1717 12.8969 32.5433 13.0258 31.8624 13.1289C31.1991 13.2148 30.5706 13.3265 29.9771 13.4639C29.401 13.6014 28.9035 13.8076 28.4845 14.0825C28.083 14.3574 27.8561 14.7526 27.8037 15.268C27.7688 15.5601 27.8212 15.8265 27.9608 16.067C28.1005 16.2904 28.2925 16.4794 28.5369 16.634C28.7813 16.7887 29.0606 16.9089 29.3748 16.9948C29.6891 17.0636 30.0033 17.0979 30.3175 17.0979C30.9809 17.0979 31.5308 17.0034 31.9672 16.8144C32.4036 16.6082 32.7527 16.3419 33.0146 16.0155C33.2765 15.689 33.4598 15.3024 33.5645 14.8557C33.6867 14.4089 33.7478 13.945 33.7478 13.4639V12.7423Z" fill="#1B1B1B"/>
<path d="M3.97536 20.4988L0 20.5L15.2839 0.5H19.2805L3.97536 20.4988Z" fill="#21B546"/>
<path d="M13.96 12.2639L7.75919 20.4989H20.2599L13.96 12.2639Z" fill="#21B546"/>
</svg>
