<svg width="42" height="42" viewBox="0 0 42 42" fill="none" xmlns="http://www.w3.org/2000/svg">
<rect x="0.5" y="0.5" width="41" height="41" rx="5.5" fill="white"/>
<rect x="0.5" y="0.5" width="41" height="41" rx="5.5" stroke="#D7DFE9"/>
<path d="M18.7141 27.1516L14.8483 23.2858M21.5625 16.5L25.5 20.4375M18.517 27.1875H15.375C15.2258 27.1875 15.0827 27.1283 14.9773 27.0228C14.8718 26.9173 14.8125 26.7742 14.8125 26.625V23.483C14.8125 23.4092 14.827 23.336 14.8553 23.2678C14.8836 23.1995 14.925 23.1375 14.9773 23.0853L23.4148 14.6478C23.5202 14.5423 23.6633 14.483 23.8125 14.483C23.9617 14.483 24.1048 14.5423 24.2102 14.6478L27.3523 17.7898C27.4577 17.8953 27.517 18.0384 27.517 18.1875C27.517 18.3367 27.4577 18.4798 27.3523 18.5853L18.9148 27.0228C18.8625 27.075 18.8005 27.1164 18.7323 27.1447C18.664 27.173 18.5909 27.1875 18.517 27.1875Z" stroke="#455468" strokeWidth="1.5" stroke-linecap="round" stroke-linejoin="round"/>
</svg>
