<svg width="100" height="100" viewBox="0 0 100 100" fill="none" xmlns="http://www.w3.org/2000/svg">
<rect width="100" height="100" rx="8" fill="white"/>
<path d="M94.2149 5.78516H5.78516V94.2149H94.2149V5.78516Z" fill="white"/>
<path d="M9.62988 9.62988H13.4747V13.4747H9.62988V9.62988ZM13.4747 9.62988H17.3194V13.4747H13.4747V9.62988ZM17.3194 9.62988H21.1642V13.4747H17.3194V9.62988ZM21.1642 9.62988H25.009V13.4747H21.1642V9.62988ZM25.009 9.62988H28.8537V13.4747H25.009V9.62988ZM28.8537 9.62988H32.6985V13.4747H28.8537V9.62988ZM32.6985 9.62988H36.5433V13.4747H32.6985V9.62988ZM48.0776 9.62988H51.9224V13.4747H48.0776V9.62988ZM51.9224 9.62988H55.7671V13.4747H51.9224V9.62988ZM55.7671 9.62988H59.6119V13.4747H55.7671V9.62988ZM63.4567 9.62988H67.3015V13.4747H63.4567V9.62988ZM67.3015 9.62988H71.1462V13.4747H67.3015V9.62988ZM71.1462 9.62988H74.991V13.4747H71.1462V9.62988ZM74.991 9.62988H78.8358V13.4747H74.991V9.62988ZM78.8358 9.62988H82.6805V13.4747H78.8358V9.62988ZM82.6805 9.62988H86.5253V13.4747H82.6805V9.62988ZM86.5253 9.62988H90.3701V13.4747H86.5253V9.62988ZM9.62988 13.4747H13.4747V17.3194H9.62988V13.4747ZM32.6985 13.4747H36.5433V17.3194H32.6985V13.4747ZM40.3881 13.4747H44.2328V17.3194H40.3881V13.4747ZM44.2328 13.4747H48.0776V17.3194H44.2328V13.4747ZM48.0776 13.4747H51.9224V17.3194H48.0776V13.4747ZM55.7671 13.4747H59.6119V17.3194H55.7671V13.4747ZM63.4567 13.4747H67.3015V17.3194H63.4567V13.4747ZM86.5253 13.4747H90.3701V17.3194H86.5253V13.4747ZM9.62988 17.3194H13.4747V21.1642H9.62988V17.3194ZM17.3194 17.3194H21.1642V21.1642H17.3194V17.3194ZM21.1642 17.3194H25.009V21.1642H21.1642V17.3194ZM25.009 17.3194H28.8537V21.1642H25.009V17.3194ZM32.6985 17.3194H36.5433V21.1642H32.6985V17.3194ZM48.0776 17.3194H51.9224V21.1642H48.0776V17.3194ZM51.9224 17.3194H55.7671V21.1642H51.9224V17.3194ZM55.7671 17.3194H59.6119V21.1642H55.7671V17.3194ZM63.4567 17.3194H67.3015V21.1642H63.4567V17.3194ZM71.1462 17.3194H74.991V21.1642H71.1462V17.3194ZM74.991 17.3194H78.8358V21.1642H74.991V17.3194ZM78.8358 17.3194H82.6805V21.1642H78.8358V17.3194ZM86.5253 17.3194H90.3701V21.1642H86.5253V17.3194ZM9.62988 21.1642H13.4747V25.009H9.62988V21.1642ZM17.3194 21.1642H21.1642V25.009H17.3194V21.1642ZM21.1642 21.1642H25.009V25.009H21.1642V21.1642ZM25.009 21.1642H28.8537V25.009H25.009V21.1642ZM32.6985 21.1642H36.5433V25.009H32.6985V21.1642ZM40.3881 21.1642H44.2328V25.009H40.3881V21.1642ZM44.2328 21.1642H48.0776V25.009H44.2328V21.1642ZM55.7671 21.1642H59.6119V25.009H55.7671V21.1642ZM63.4567 21.1642H67.3015V25.009H63.4567V21.1642ZM71.1462 21.1642H74.991V25.009H71.1462V21.1642ZM74.991 21.1642H78.8358V25.009H74.991V21.1642ZM78.8358 21.1642H82.6805V25.009H78.8358V21.1642ZM86.5253 21.1642H90.3701V25.009H86.5253V21.1642ZM9.62988 25.009H13.4747V28.8537H9.62988V25.009ZM17.3194 25.009H21.1642V28.8537H17.3194V25.009ZM21.1642 25.009H25.009V28.8537H21.1642V25.009ZM25.009 25.009H28.8537V28.8537H25.009V25.009ZM32.6985 25.009H36.5433V28.8537H32.6985V25.009ZM44.2328 25.009H48.0776V28.8537H44.2328V25.009ZM55.7671 25.009H59.6119V28.8537H55.7671V25.009ZM63.4567 25.009H67.3015V28.8537H63.4567V25.009ZM71.1462 25.009H74.991V28.8537H71.1462V25.009ZM74.991 25.009H78.8358V28.8537H74.991V25.009ZM78.8358 25.009H82.6805V28.8537H78.8358V25.009ZM86.5253 25.009H90.3701V28.8537H86.5253V25.009ZM9.62988 28.8537H13.4747V32.6985H9.62988V28.8537ZM32.6985 28.8537H36.5433V32.6985H32.6985V28.8537ZM40.3881 28.8537H44.2328V32.6985H40.3881V28.8537ZM51.9224 28.8537H55.7671V32.6985H51.9224V28.8537ZM63.4567 28.8537H67.3015V32.6985H63.4567V28.8537ZM86.5253 28.8537H90.3701V32.6985H86.5253V28.8537ZM9.62988 32.6985H13.4747V36.5433H9.62988V32.6985ZM13.4747 32.6985H17.3194V36.5433H13.4747V32.6985ZM17.3194 32.6985H21.1642V36.5433H17.3194V32.6985ZM21.1642 32.6985H25.009V36.5433H21.1642V32.6985ZM25.009 32.6985H28.8537V36.5433H25.009V32.6985ZM28.8537 32.6985H32.6985V36.5433H28.8537V32.6985ZM32.6985 32.6985H36.5433V36.5433H32.6985V32.6985ZM40.3881 32.6985H44.2328V36.5433H40.3881V32.6985ZM48.0776 32.6985H51.9224V36.5433H48.0776V32.6985ZM55.7671 32.6985H59.6119V36.5433H55.7671V32.6985ZM63.4567 32.6985H67.3015V36.5433H63.4567V32.6985ZM67.3015 32.6985H71.1462V36.5433H67.3015V32.6985ZM71.1462 32.6985H74.991V36.5433H71.1462V32.6985ZM74.991 32.6985H78.8358V36.5433H74.991V32.6985ZM78.8358 32.6985H82.6805V36.5433H78.8358V32.6985ZM82.6805 32.6985H86.5253V36.5433H82.6805V32.6985ZM86.5253 32.6985H90.3701V36.5433H86.5253V32.6985ZM44.2328 36.5433H48.0776V40.3881H44.2328V36.5433ZM9.62988 40.3881H13.4747V44.2328H9.62988V40.3881ZM13.4747 40.3881H17.3194V44.2328H13.4747V40.3881ZM17.3194 40.3881H21.1642V44.2328H17.3194V40.3881ZM21.1642 40.3881H25.009V44.2328H21.1642V40.3881ZM25.009 40.3881H28.8537V44.2328H25.009V40.3881ZM32.6985 40.3881H36.5433V44.2328H32.6985V40.3881ZM36.5433 40.3881H40.3881V44.2328H36.5433V40.3881ZM40.3881 40.3881H44.2328V44.2328H40.3881V40.3881ZM51.9224 40.3881H55.7671V44.2328H51.9224V40.3881ZM59.6119 40.3881H63.4567V44.2328H59.6119V40.3881ZM67.3015 40.3881H71.1462V44.2328H67.3015V40.3881ZM74.991 40.3881H78.8358V44.2328H74.991V40.3881ZM82.6805 40.3881H86.5253V44.2328H82.6805V40.3881ZM9.62988 44.2328H13.4747V48.0776H9.62988V44.2328ZM13.4747 44.2328H17.3194V48.0776H13.4747V44.2328ZM36.5433 44.2328H40.3881V48.0776H36.5433V44.2328ZM44.2328 44.2328H48.0776V48.0776H44.2328V44.2328ZM48.0776 44.2328H51.9224V48.0776H48.0776V44.2328ZM51.9224 44.2328H55.7671V48.0776H51.9224V44.2328ZM55.7671 44.2328H59.6119V48.0776H55.7671V44.2328ZM59.6119 44.2328H63.4567V48.0776H59.6119V44.2328ZM63.4567 44.2328H67.3015V48.0776H63.4567V44.2328ZM67.3015 44.2328H71.1462V48.0776H67.3015V44.2328ZM71.1462 44.2328H74.991V48.0776H71.1462V44.2328ZM74.991 44.2328H78.8358V48.0776H74.991V44.2328ZM86.5253 44.2328H90.3701V48.0776H86.5253V44.2328ZM9.62988 48.0776H13.4747V51.9224H9.62988V48.0776ZM32.6985 48.0776H36.5433V51.9224H32.6985V48.0776ZM36.5433 48.0776H40.3881V51.9224H36.5433V48.0776ZM55.7671 48.0776H59.6119V51.9224H55.7671V48.0776ZM63.4567 48.0776H67.3015V51.9224H63.4567V48.0776ZM67.3015 48.0776H71.1462V51.9224H67.3015V48.0776ZM78.8358 48.0776H82.6805V51.9224H78.8358V48.0776ZM82.6805 48.0776H86.5253V51.9224H82.6805V48.0776ZM9.62988 51.9224H13.4747V55.7671H9.62988V51.9224ZM17.3194 51.9224H21.1642V55.7671H17.3194V51.9224ZM21.1642 51.9224H25.009V55.7671H21.1642V51.9224ZM25.009 51.9224H28.8537V55.7671H25.009V51.9224ZM28.8537 51.9224H32.6985V55.7671H28.8537V51.9224ZM40.3881 51.9224H44.2328V55.7671H40.3881V51.9224ZM48.0776 51.9224H51.9224V55.7671H48.0776V51.9224ZM51.9224 51.9224H55.7671V55.7671H51.9224V51.9224ZM55.7671 51.9224H59.6119V55.7671H55.7671V51.9224ZM59.6119 51.9224H63.4567V55.7671H59.6119V51.9224ZM74.991 51.9224H78.8358V55.7671H74.991V51.9224ZM78.8358 51.9224H82.6805V55.7671H78.8358V51.9224ZM82.6805 51.9224H86.5253V55.7671H82.6805V51.9224ZM13.4747 55.7671H17.3194V59.6119H13.4747V55.7671ZM17.3194 55.7671H21.1642V59.6119H17.3194V55.7671ZM21.1642 55.7671H25.009V59.6119H21.1642V55.7671ZM32.6985 55.7671H36.5433V59.6119H32.6985V55.7671ZM36.5433 55.7671H40.3881V59.6119H36.5433V55.7671ZM40.3881 55.7671H44.2328V59.6119H40.3881V55.7671ZM55.7671 55.7671H59.6119V59.6119H55.7671V55.7671ZM63.4567 55.7671H67.3015V59.6119H63.4567V55.7671ZM74.991 55.7671H78.8358V59.6119H74.991V55.7671ZM40.3881 59.6119H44.2328V63.4567H40.3881V59.6119ZM55.7671 59.6119H59.6119V63.4567H55.7671V59.6119ZM67.3015 59.6119H71.1462V63.4567H67.3015V59.6119ZM71.1462 59.6119H74.991V63.4567H71.1462V59.6119ZM74.991 59.6119H78.8358V63.4567H74.991V59.6119ZM78.8358 59.6119H82.6805V63.4567H78.8358V59.6119ZM86.5253 59.6119H90.3701V63.4567H86.5253V59.6119ZM9.62988 63.4567H13.4747V67.3015H9.62988V63.4567ZM13.4747 63.4567H17.3194V67.3015H13.4747V63.4567ZM17.3194 63.4567H21.1642V67.3015H17.3194V63.4567ZM21.1642 63.4567H25.009V67.3015H21.1642V63.4567ZM25.009 63.4567H28.8537V67.3015H25.009V63.4567ZM28.8537 63.4567H32.6985V67.3015H28.8537V63.4567ZM32.6985 63.4567H36.5433V67.3015H32.6985V63.4567ZM40.3881 63.4567H44.2328V67.3015H40.3881V63.4567ZM44.2328 63.4567H48.0776V67.3015H44.2328V63.4567ZM48.0776 63.4567H51.9224V67.3015H48.0776V63.4567ZM51.9224 63.4567H55.7671V67.3015H51.9224V63.4567ZM59.6119 63.4567H63.4567V67.3015H59.6119V63.4567ZM63.4567 63.4567H67.3015V67.3015H63.4567V63.4567ZM78.8358 63.4567H82.6805V67.3015H78.8358V63.4567ZM82.6805 63.4567H86.5253V67.3015H82.6805V63.4567ZM9.62988 67.3015H13.4747V71.1462H9.62988V67.3015ZM32.6985 67.3015H36.5433V71.1462H32.6985V67.3015ZM44.2328 67.3015H48.0776V71.1462H44.2328V67.3015ZM48.0776 67.3015H51.9224V71.1462H48.0776V67.3015ZM59.6119 67.3015H63.4567V71.1462H59.6119V67.3015ZM71.1462 67.3015H74.991V71.1462H71.1462V67.3015ZM74.991 67.3015H78.8358V71.1462H74.991V67.3015ZM78.8358 67.3015H82.6805V71.1462H78.8358V67.3015ZM82.6805 67.3015H86.5253V71.1462H82.6805V67.3015ZM86.5253 67.3015H90.3701V71.1462H86.5253V67.3015ZM9.62988 71.1462H13.4747V74.991H9.62988V71.1462ZM17.3194 71.1462H21.1642V74.991H17.3194V71.1462ZM21.1642 71.1462H25.009V74.991H21.1642V71.1462ZM25.009 71.1462H28.8537V74.991H25.009V71.1462ZM32.6985 71.1462H36.5433V74.991H32.6985V71.1462ZM40.3881 71.1462H44.2328V74.991H40.3881V71.1462ZM48.0776 71.1462H51.9224V74.991H48.0776V71.1462ZM51.9224 71.1462H55.7671V74.991H51.9224V71.1462ZM63.4567 71.1462H67.3015V74.991H63.4567V71.1462ZM67.3015 71.1462H71.1462V74.991H67.3015V71.1462ZM86.5253 71.1462H90.3701V74.991H86.5253V71.1462ZM9.62988 74.991H13.4747V78.8358H9.62988V74.991ZM17.3194 74.991H21.1642V78.8358H17.3194V74.991ZM21.1642 74.991H25.009V78.8358H21.1642V74.991ZM25.009 74.991H28.8537V78.8358H25.009V74.991ZM32.6985 74.991H36.5433V78.8358H32.6985V74.991ZM40.3881 74.991H44.2328V78.8358H40.3881V74.991ZM48.0776 74.991H51.9224V78.8358H48.0776V74.991ZM55.7671 74.991H59.6119V78.8358H55.7671V74.991ZM59.6119 74.991H63.4567V78.8358H59.6119V74.991ZM63.4567 74.991H67.3015V78.8358H63.4567V74.991ZM71.1462 74.991H74.991V78.8358H71.1462V74.991ZM78.8358 74.991H82.6805V78.8358H78.8358V74.991ZM9.62988 78.8358H13.4747V82.6805H9.62988V78.8358ZM17.3194 78.8358H21.1642V82.6805H17.3194V78.8358ZM21.1642 78.8358H25.009V82.6805H21.1642V78.8358ZM25.009 78.8358H28.8537V82.6805H25.009V78.8358ZM32.6985 78.8358H36.5433V82.6805H32.6985V78.8358ZM40.3881 78.8358H44.2328V82.6805H40.3881V78.8358ZM44.2328 78.8358H48.0776V82.6805H44.2328V78.8358ZM48.0776 78.8358H51.9224V82.6805H48.0776V78.8358ZM55.7671 78.8358H59.6119V82.6805H55.7671V78.8358ZM59.6119 78.8358H63.4567V82.6805H59.6119V78.8358ZM63.4567 78.8358H67.3015V82.6805H63.4567V78.8358ZM74.991 78.8358H78.8358V82.6805H74.991V78.8358ZM9.62988 82.6805H13.4747V86.5253H9.62988V82.6805ZM32.6985 82.6805H36.5433V86.5253H32.6985V82.6805ZM40.3881 82.6805H44.2328V86.5253H40.3881V82.6805ZM44.2328 82.6805H48.0776V86.5253H44.2328V82.6805ZM48.0776 82.6805H51.9224V86.5253H48.0776V82.6805ZM51.9224 82.6805H55.7671V86.5253H51.9224V82.6805ZM55.7671 82.6805H59.6119V86.5253H55.7671V82.6805ZM59.6119 82.6805H63.4567V86.5253H59.6119V82.6805ZM74.991 82.6805H78.8358V86.5253H74.991V82.6805ZM78.8358 82.6805H82.6805V86.5253H78.8358V82.6805ZM9.62988 86.5253H13.4747V90.3701H9.62988V86.5253ZM13.4747 86.5253H17.3194V90.3701H13.4747V86.5253ZM17.3194 86.5253H21.1642V90.3701H17.3194V86.5253ZM21.1642 86.5253H25.009V90.3701H21.1642V86.5253ZM25.009 86.5253H28.8537V90.3701H25.009V86.5253ZM28.8537 86.5253H32.6985V90.3701H28.8537V86.5253ZM32.6985 86.5253H36.5433V90.3701H32.6985V86.5253ZM40.3881 86.5253H44.2328V90.3701H40.3881V86.5253ZM51.9224 86.5253H55.7671V90.3701H51.9224V86.5253ZM63.4567 86.5253H67.3015V90.3701H63.4567V86.5253ZM67.3015 86.5253H71.1462V90.3701H67.3015V86.5253ZM82.6805 86.5253H86.5253V90.3701H82.6805V86.5253Z" fill="#15362B"/>
</svg>
