<svg width="15" height="14" viewBox="0 0 15 14" fill="none" xmlns="http://www.w3.org/2000/svg">
<path d="M4.61328 5.01128H1.23828M1.23828 5.01128V1.63628M1.23828 5.01128L3.6248 2.62478C4.49014 1.75944 5.59264 1.17014 6.7929 0.931394C7.99316 0.692648 9.23726 0.815181 10.3679 1.2835C11.4985 1.75182 12.4649 2.54488 13.1447 3.56241C13.8246 4.57994 14.1875 5.77623 14.1875 7C14.1875 8.22377 13.8246 9.42007 13.1447 10.4376C12.4649 11.4551 11.4985 12.2482 10.3679 12.7165C9.23726 13.1848 7.99316 13.3074 6.7929 13.0686C5.59264 12.8299 4.49014 12.2406 3.6248 11.3752" stroke="#21B546" stroke-width="1.5" stroke-linecap="round" stroke-linejoin="round"/>
</svg>
