<svg width="8" height="13" viewBox="0 0 8 13" fill="none" xmlns="http://www.w3.org/2000/svg">
<path d="M1.249 1.93605C1.03567 1.93605 0.875667 1.87738 0.769 1.76005C0.673 1.64272 0.625 1.50938 0.625 1.36005C0.625 1.21072 0.673 1.08272 0.769 0.976049C0.875667 0.858716 1.03567 0.800049 1.249 0.800049H7.169C7.38233 0.800049 7.537 0.858716 7.633 0.976049C7.73967 1.09338 7.793 1.22672 7.793 1.37605C7.793 1.52538 7.73967 1.65872 7.633 1.77605C7.537 1.88272 7.38233 1.93605 7.169 1.93605H6.305C5.93167 1.93605 5.617 1.93072 5.361 1.92005C5.105 1.90938 4.95033 1.89872 4.897 1.88805V1.95205C5.121 2.04805 5.33967 2.20805 5.553 2.43205C5.76633 2.65605 5.92633 2.93872 6.033 3.28005H7.169C7.38233 3.28005 7.537 3.33872 7.633 3.45605C7.73967 3.57338 7.793 3.70672 7.793 3.85605C7.793 4.00538 7.73967 4.13872 7.633 4.25605C7.537 4.36272 7.38233 4.41605 7.169 4.41605H6.113C6.05967 4.90672 5.92633 5.32805 5.713 5.68005C5.49967 6.02138 5.23833 6.30405 4.929 6.52805C4.63033 6.75205 4.29433 6.92272 3.921 7.04005C3.55833 7.15738 3.201 7.23205 2.849 7.26405L6.465 10.736C6.63567 10.9067 6.721 11.0987 6.721 11.312C6.721 11.5147 6.657 11.6854 6.529 11.824C6.401 11.9627 6.225 12.032 6.001 12.032C5.88367 12.032 5.76633 12.016 5.649 11.984C5.54233 11.9414 5.43033 11.8614 5.313 11.7441L1.057 7.58405C0.939667 7.47738 0.854333 7.37072 0.801 7.26405C0.747667 7.14672 0.721 7.02938 0.721 6.91205C0.721 6.70938 0.785 6.54405 0.913 6.41605C1.041 6.27738 1.20633 6.20805 1.409 6.20805H1.617C1.94767 6.20805 2.273 6.18138 2.593 6.12805C2.92367 6.06405 3.217 5.96272 3.473 5.82405C3.73967 5.67472 3.96367 5.48805 4.145 5.26405C4.32633 5.04005 4.44367 4.75738 4.497 4.41605H1.249C1.03567 4.41605 0.875667 4.35738 0.769 4.24005C0.673 4.12272 0.625 3.98938 0.625 3.84005C0.625 3.69072 0.673 3.56272 0.769 3.45605C0.875667 3.33872 1.03567 3.28005 1.249 3.28005H4.417C4.13967 2.38405 3.32367 1.93605 1.969 1.93605H1.249Z" fill="#8897AE"/>
</svg>
