<svg width="106" height="106" viewBox="0 0 106 106" fill="none" xmlns="http://www.w3.org/2000/svg">
<path d="M29.0816 0.378662H25.8924V3.56787H29.0816V0.378662Z" fill="black"/>
<path d="M38.6491 0.378662H35.46V3.56787H38.6491V0.378662Z" fill="black"/>
<path d="M41.8384 0.378662H38.6491V3.56787H41.8384V0.378662Z" fill="black"/>
<path d="M45.0275 0.378662H41.8384V3.56787H45.0275V0.378662Z" fill="black"/>
<path d="M51.4059 0.378662H48.2167V3.56787H51.4059V0.378662Z" fill="black"/>
<path d="M60.9735 0.378662H57.7843V3.56787H60.9735V0.378662Z" fill="black"/>
<path d="M76.9194 0.378662H73.7302V3.56787H76.9194V0.378662Z" fill="black"/>
<path d="M32.2709 3.56804L29.0816 3.56787L29.0816 6.75722H32.2709V3.56804Z" fill="black"/>
<path d="M35.46 3.56787L32.2709 3.56804V6.75722H35.46L35.46 3.56787Z" fill="black"/>
<path d="M38.6491 3.56787H35.46L35.46 6.75722H38.6491V3.56787Z" fill="black"/>
<path d="M41.8384 3.56787H38.6491V6.75722H41.8384V3.56787Z" fill="black"/>
<path d="M45.0275 3.56787H41.8384V6.75722H45.0275V3.56787Z" fill="black"/>
<path d="M48.2167 3.56787H45.0275V6.75722H48.2168L48.2167 3.56787Z" fill="black"/>
<path d="M60.9735 3.56787H57.7843V6.75722H60.9735V3.56787Z" fill="black"/>
<path d="M64.1627 3.56804L60.9735 3.56787V6.75722H64.1627V3.56804Z" fill="black"/>
<path d="M35.46 6.75722H32.2709L32.2709 9.9466H35.46V6.75722Z" fill="black"/>
<path d="M41.8384 6.75722H38.6491L38.6492 9.9466H41.8384V6.75722Z" fill="black"/>
<path d="M48.2168 6.75722H45.0275L45.0276 9.9466H48.2168V6.75722Z" fill="black"/>
<path d="M51.4059 6.75742L48.2168 6.75722V9.9466H51.4059V6.75742Z" fill="black"/>
<path d="M54.5952 6.75742H51.4059V9.9466H54.5952V6.75742Z" fill="black"/>
<path d="M57.7843 6.75722L54.5952 6.75742V9.9466H57.7843L57.7843 6.75722Z" fill="black"/>
<path d="M60.9735 6.75722H57.7843L57.7843 9.9466H60.9735V6.75722Z" fill="black"/>
<path d="M64.1627 6.75722H60.9735V9.9466H64.1627V6.75722Z" fill="black"/>
<path d="M70.5412 6.75742H67.3518V9.9466H70.5412V6.75742Z" fill="black"/>
<path d="M76.9194 6.75742H73.7302V9.9466H76.9194V6.75742Z" fill="black"/>
<path d="M29.0817 9.94717H25.8925V13.1364H29.0817V9.94717Z" fill="black"/>
<path d="M32.2709 9.9466L29.0817 9.94717V13.1364H32.271L32.2709 9.9466Z" fill="black"/>
<path d="M38.6492 9.9466H35.46L35.4601 13.1364H38.6493L38.6492 9.9466Z" fill="black"/>
<path d="M41.8384 9.9466H38.6492L38.6493 13.1364H41.8385L41.8384 9.9466Z" fill="black"/>
<path d="M54.5952 9.9466H51.4059L51.4061 13.1364H54.5953L54.5952 9.9466Z" fill="black"/>
<path d="M57.7843 9.9466H54.5952L54.5953 13.1364H57.7845L57.7843 9.9466Z" fill="black"/>
<path d="M70.5412 9.9466H67.3518L67.3517 13.1364H70.541L70.5412 9.9466Z" fill="black"/>
<path d="M73.7302 9.9466H70.5412L70.541 13.1364H73.7304L73.7302 9.9466Z" fill="black"/>
<path d="M29.0816 13.135H25.8924V16.3242H29.0816V13.135Z" fill="black"/>
<path d="M32.2709 13.135H29.0816V16.3242H32.2709V13.135Z" fill="black"/>
<path d="M54.5952 13.135H51.406V16.3242H54.5952V13.135Z" fill="black"/>
<path d="M57.7843 13.135H54.5952V16.3242H57.7843V13.135Z" fill="black"/>
<path d="M64.1627 13.135H60.9735V16.3242H64.1627V13.135Z" fill="black"/>
<path d="M70.5412 13.135H67.3518V16.3242H70.5412V13.135Z" fill="black"/>
<path d="M73.7303 13.135H70.5412V16.3242H73.7303V13.135Z" fill="black"/>
<path d="M29.0816 16.3242H25.8924L25.8925 19.5139H29.0817L29.0816 16.3242Z" fill="black"/>
<path d="M32.2709 16.3242H29.0816L29.0817 19.5139H32.271L32.2709 16.3242Z" fill="black"/>
<path d="M35.46 16.3247L32.2709 16.3242L32.271 19.5139H35.46V16.3247Z" fill="black"/>
<path d="M41.8385 16.3247H38.6493V19.5139H41.8385V16.3247Z" fill="black"/>
<path d="M51.406 16.3242L48.2169 16.3247V19.5139H51.4061L51.406 16.3242Z" fill="black"/>
<path d="M57.7843 16.3242H54.5952L54.5953 19.5139H57.7845L57.7843 16.3242Z" fill="black"/>
<path d="M67.3518 16.3242H64.1627L64.1625 19.5139H67.3517L67.3518 16.3242Z" fill="black"/>
<path d="M70.5412 16.3242H67.3518L67.3517 19.5139H70.541L70.5412 16.3242Z" fill="black"/>
<path d="M73.7303 16.3242H70.5412L70.541 19.5139H73.7304L73.7303 16.3242Z" fill="black"/>
<path d="M76.9193 16.3247L73.7303 16.3242L73.7304 19.5139H76.9193V16.3247Z" fill="black"/>
<path d="M80.1085 16.3247H76.9193V19.5139H80.1085V16.3247Z" fill="black"/>
<path d="M29.0817 19.5139H25.8925V22.7026H29.0817V19.5139Z" fill="black"/>
<path d="M35.46 19.5139H32.271L32.2709 22.7026H35.46V19.5139Z" fill="black"/>
<path d="M41.8385 19.5139H38.6493V22.7026H41.8385V19.5139Z" fill="black"/>
<path d="M48.2169 19.5139L45.0277 19.5134V22.7026H48.2169L48.2169 19.5139Z" fill="black"/>
<path d="M54.5953 19.5139H51.4061L51.4061 22.7026H54.5953L54.5953 19.5139Z" fill="black"/>
<path d="M60.9733 19.5134L57.7845 19.5139L57.7841 22.7026H60.9733V19.5134Z" fill="black"/>
<path d="M67.3517 19.5139H64.1625V22.7026H67.3517V19.5139Z" fill="black"/>
<path d="M73.7304 19.5139H70.541L70.5413 22.7026H73.7304V19.5139Z" fill="black"/>
<path d="M80.1085 19.5139H76.9193L76.9193 22.7026H80.1085V19.5139Z" fill="black"/>
<path d="M29.0817 22.7026H25.8925L25.8924 25.8923H29.0816L29.0817 22.7026Z" fill="black"/>
<path d="M38.6493 22.7026H35.46L35.46 25.8923H38.6491L38.6493 22.7026Z" fill="black"/>
<path d="M48.2169 22.7026H45.0277L45.0276 25.8923H48.2168L48.2169 22.7026Z" fill="black"/>
<path d="M57.7841 22.7026H54.5953L54.5951 25.8923H57.7843L57.7841 22.7026Z" fill="black"/>
<path d="M60.9733 22.7026H57.7841L57.7843 25.8923H60.9735L60.9733 22.7026Z" fill="black"/>
<path d="M64.1625 22.7026H60.9733L60.9735 25.8923H64.1627L64.1625 22.7026Z" fill="black"/>
<path d="M67.3517 22.7026H64.1625L64.1627 25.8923H67.3519L67.3517 22.7026Z" fill="black"/>
<path d="M70.5413 22.7026H67.3517L67.3519 25.8923H70.5412L70.5413 22.7026Z" fill="black"/>
<path d="M80.1085 22.7026H76.9193L76.9195 25.8923H80.1087L80.1085 22.7026Z" fill="black"/>
<path d="M3.56811 25.8925H0.378906V29.0817H3.56811V25.8925Z" fill="black"/>
<path d="M16.3249 25.8925H13.1357V29.0817H16.3249V25.8925Z" fill="black"/>
<path d="M22.7032 25.8925H19.514V29.0817H22.7032V25.8925Z" fill="black"/>
<path d="M25.8924 25.8923L22.7032 25.8925V29.0817H25.8924L25.8924 25.8923Z" fill="black"/>
<path d="M29.0816 25.8923H25.8924L25.8924 29.0817H29.0816V25.8923Z" fill="black"/>
<path d="M35.46 25.8923L32.2709 25.8925V29.0817H35.46L35.46 25.8923Z" fill="black"/>
<path d="M41.8384 25.8925L38.6491 25.8923L38.6492 29.0817H41.8384V25.8925Z" fill="black"/>
<path d="M51.4059 25.8925L48.2168 25.8923L48.2167 29.0817H51.4059V25.8925Z" fill="black"/>
<path d="M57.7843 25.8923H54.5951V29.0817H57.7843V25.8923Z" fill="black"/>
<path d="M67.3519 25.8923H64.1627L64.1627 29.0817H67.3519V25.8923Z" fill="black"/>
<path d="M70.5412 25.8923H67.3519V29.0817H70.5412V25.8923Z" fill="black"/>
<path d="M73.7303 25.8925L70.5412 25.8923V29.0817H73.7303V25.8925Z" fill="black"/>
<path d="M76.9195 25.8923L73.7303 25.8925V29.0817H76.9194L76.9195 25.8923Z" fill="black"/>
<path d="M83.2978 25.8925L80.1087 25.8923L80.1086 29.0817H83.2978V25.8925Z" fill="black"/>
<path d="M86.487 25.8925H83.2978V29.0817H86.487V25.8925Z" fill="black"/>
<path d="M89.6762 25.8925H86.487V29.0817H89.6762V25.8925Z" fill="black"/>
<path d="M92.8654 25.8925H89.6762V29.0817H92.8654V25.8925Z" fill="black"/>
<path d="M96.0546 25.8925H92.8654V29.0817H96.0546V25.8925Z" fill="black"/>
<path d="M105.622 25.8925H102.433V29.0817H105.622V25.8925Z" fill="black"/>
<path d="M6.75728 29.0815L3.56811 29.0817L3.56811 32.2707H6.75728V29.0815Z" fill="black"/>
<path d="M19.514 29.0817H16.3249L16.3249 32.2707H19.5141L19.514 29.0817Z" fill="black"/>
<path d="M25.8924 29.0817H22.7032L22.7033 32.2707H25.8925L25.8924 29.0817Z" fill="black"/>
<path d="M35.46 29.0817H32.2709L32.2709 32.2707H35.46L35.46 29.0817Z" fill="black"/>
<path d="M38.6492 29.0817H35.46L35.46 32.2707H38.6493L38.6492 29.0817Z" fill="black"/>
<path d="M51.4059 29.0817H48.2167L48.2169 32.2707H51.4061L51.4059 29.0817Z" fill="black"/>
<path d="M54.5951 29.0817H51.4059L51.4061 32.2707H54.5953L54.5951 29.0817Z" fill="black"/>
<path d="M57.7843 29.0817H54.5951L54.5953 32.2707H57.7845L57.7843 29.0817Z" fill="black"/>
<path d="M60.9733 29.0815L57.7843 29.0817L57.7845 32.2707H60.9733V29.0815Z" fill="black"/>
<path d="M70.5412 29.0817H67.3519L67.3517 32.2707H70.541L70.5412 29.0817Z" fill="black"/>
<path d="M73.7303 29.0817H70.5412L70.541 32.2707H73.7304L73.7303 29.0817Z" fill="black"/>
<path d="M76.9194 29.0817H73.7303L73.7304 32.2707H76.9193L76.9194 29.0817Z" fill="black"/>
<path d="M83.2978 29.0817H80.1086L80.1085 32.2707H83.2977L83.2978 29.0817Z" fill="black"/>
<path d="M96.0546 29.0817H92.8654L92.8653 32.2707H96.0545L96.0546 29.0817Z" fill="black"/>
<path d="M99.2437 29.0815L96.0546 29.0817L96.0545 32.2707H99.2437V29.0815Z" fill="black"/>
<path d="M105.622 29.0817H102.433L102.433 32.2707H105.622L105.622 29.0817Z" fill="black"/>
<path d="M3.56811 32.2707L0.378906 32.2701V35.4593H3.56811L3.56811 32.2707Z" fill="black"/>
<path d="M9.94649 32.2701L6.75728 32.2707L6.7573 35.4593H9.94649V32.2701Z" fill="black"/>
<path d="M16.3249 32.2707L13.1357 32.2701V35.4593H16.3249L16.3249 32.2707Z" fill="black"/>
<path d="M19.5141 32.2707H16.3249L16.3249 35.4593H19.514L19.5141 32.2707Z" fill="black"/>
<path d="M22.7033 32.2707H19.5141L19.514 35.4593H22.7032L22.7033 32.2707Z" fill="black"/>
<path d="M25.8925 32.2707H22.7033L22.7032 35.4593H25.8924L25.8925 32.2707Z" fill="black"/>
<path d="M29.0816 32.2701L25.8925 32.2707L25.8924 35.4593H29.0816V32.2701Z" fill="black"/>
<path d="M45.0275 32.2701H41.8383V35.4593H45.0275V32.2701Z" fill="black"/>
<path d="M48.2169 32.2707L45.0275 32.2701V35.4593H48.2168L48.2169 32.2707Z" fill="black"/>
<path d="M51.4061 32.2707H48.2169L48.2168 35.4593H51.4059L51.4061 32.2707Z" fill="black"/>
<path d="M60.9733 32.2707H57.7845L57.7843 35.4593H60.9735L60.9733 32.2707Z" fill="black"/>
<path d="M76.9193 32.2707H73.7304L73.7302 35.4593H76.9194L76.9193 32.2707Z" fill="black"/>
<path d="M83.2977 32.2707H80.1085L80.1086 35.4593H83.2978L83.2977 32.2707Z" fill="black"/>
<path d="M96.0545 32.2707H92.8653L92.8654 35.4593H96.0546L96.0545 32.2707Z" fill="black"/>
<path d="M102.433 32.2707H99.2437L99.2438 35.4593H102.433L102.433 32.2707Z" fill="black"/>
<path d="M9.94649 35.4593H6.7573L6.75731 38.6491H9.9465L9.94649 35.4593Z" fill="black"/>
<path d="M16.3249 35.4593H13.1357L13.1357 38.6491H16.3249L16.3249 35.4593Z" fill="black"/>
<path d="M25.8924 35.4593H22.7032L22.7033 38.6491H25.8925L25.8924 35.4593Z" fill="black"/>
<path d="M35.46 35.4599H32.2709V38.6491H35.46V35.4599Z" fill="black"/>
<path d="M41.8383 35.4593L38.6493 35.4599V38.6491H41.8385L41.8383 35.4593Z" fill="black"/>
<path d="M45.0275 35.4593H41.8383L41.8385 38.6491H45.0277L45.0275 35.4593Z" fill="black"/>
<path d="M54.5953 35.4599L51.4059 35.4593L51.4061 38.6491H54.5953V35.4599Z" fill="black"/>
<path d="M64.1629 35.4599L60.9735 35.4593L60.9737 38.6491H64.1629V35.4599Z" fill="black"/>
<path d="M67.3517 35.4599H64.1629V38.6491H67.3517V35.4599Z" fill="black"/>
<path d="M73.7302 35.4593L70.5413 35.4599V38.6491H73.7304L73.7302 35.4593Z" fill="black"/>
<path d="M80.1086 35.4593H76.9194L76.9193 38.6491H80.1085L80.1086 35.4593Z" fill="black"/>
<path d="M83.2978 35.4593H80.1086L80.1085 38.6491H83.2977L83.2978 35.4593Z" fill="black"/>
<path d="M86.4869 35.4599L83.2978 35.4593L83.2977 38.6491H86.4869V35.4599Z" fill="black"/>
<path d="M3.56811 38.6486H0.378906V41.8378H3.56811V38.6486Z" fill="black"/>
<path d="M9.9465 38.6491H6.75731V41.8378H9.9465V38.6491Z" fill="black"/>
<path d="M13.1357 38.6491H9.9465V41.8378H13.1357L13.1357 38.6491Z" fill="black"/>
<path d="M22.7033 38.6491L19.5141 38.6486V41.8378H22.7033L22.7033 38.6491Z" fill="black"/>
<path d="M29.0817 38.6486L25.8925 38.6491L25.8925 41.8378H29.0817V38.6486Z" fill="black"/>
<path d="M35.46 38.6491H32.2709V41.8378H35.46V38.6491Z" fill="black"/>
<path d="M41.8385 38.6491H38.6493V41.8378H41.8385V38.6491Z" fill="black"/>
<path d="M45.0277 38.6491H41.8385V41.8378H45.0277V38.6491Z" fill="black"/>
<path d="M54.5953 38.6491H51.4061V41.8378H54.5953V38.6491Z" fill="black"/>
<path d="M73.7304 38.6491H70.5413V41.8378H73.7304V38.6491Z" fill="black"/>
<path d="M76.9193 38.6491H73.7304V41.8378H76.9193L76.9193 38.6491Z" fill="black"/>
<path d="M80.1085 38.6491H76.9193L76.9193 41.8378H80.1085V38.6491Z" fill="black"/>
<path d="M86.4869 38.6491H83.2977L83.2977 41.8378H86.4869V38.6491Z" fill="black"/>
<path d="M89.6761 38.6486L86.4869 38.6491V41.8378H89.6761V38.6486Z" fill="black"/>
<path d="M96.0545 38.6486H92.8653V41.8378H96.0545V38.6486Z" fill="black"/>
<path d="M105.622 38.6486H102.433V41.8378H105.622V38.6486Z" fill="black"/>
<path d="M3.56811 41.8378H0.378906V45.0274H3.56811V41.8378Z" fill="black"/>
<path d="M9.9465 41.8378H6.75731L6.7573 45.0274H9.94649L9.9465 41.8378Z" fill="black"/>
<path d="M13.1357 41.8378H9.9465L9.94649 45.0274H13.1357L13.1357 41.8378Z" fill="black"/>
<path d="M16.3249 41.8382L13.1357 41.8378L13.1357 45.0274H16.3249V41.8382Z" fill="black"/>
<path d="M19.5141 41.8378L16.3249 41.8382V45.0274H19.514L19.5141 41.8378Z" fill="black"/>
<path d="M25.8925 41.8378H22.7033L22.7032 45.0274H25.8924L25.8925 41.8378Z" fill="black"/>
<path d="M35.46 41.8378H32.2709L32.2709 45.0274H35.46L35.46 41.8378Z" fill="black"/>
<path d="M38.6493 41.8378H35.46L35.46 45.0274H38.6491L38.6493 41.8378Z" fill="black"/>
<path d="M48.2168 41.8382L45.0277 41.8378L45.0276 45.0274H48.2168V41.8382Z" fill="black"/>
<path d="M57.7843 41.8382L54.5953 41.8378L54.5951 45.0274H57.7843V41.8382Z" fill="black"/>
<path d="M60.9735 41.8382H57.7843V45.0274H60.9735V41.8382Z" fill="black"/>
<path d="M64.1627 41.8382H60.9735V45.0274H64.1627V41.8382Z" fill="black"/>
<path d="M67.3519 41.8382H64.1627V45.0274H67.3519V41.8382Z" fill="black"/>
<path d="M80.1085 41.8378H76.9193L76.9195 45.0274H80.1087L80.1085 41.8378Z" fill="black"/>
<path d="M83.2977 41.8378H80.1085L80.1087 45.0274H83.2978L83.2977 41.8378Z" fill="black"/>
<path d="M89.6761 41.8378H86.4869L86.487 45.0274H89.6762L89.6761 41.8378Z" fill="black"/>
<path d="M99.2438 41.8382L96.0545 41.8378L96.0546 45.0274H99.2438V41.8382Z" fill="black"/>
<path d="M9.94649 45.0274H6.7573L6.75731 48.2171H9.9465L9.94649 45.0274Z" fill="black"/>
<path d="M16.3249 45.0274H13.1357L13.1357 48.2171H16.3249L16.3249 45.0274Z" fill="black"/>
<path d="M19.514 45.0274H16.3249L16.3249 48.2171H19.5141L19.514 45.0274Z" fill="black"/>
<path d="M22.7032 45.0274H19.514L19.5141 48.2171H22.7033L22.7032 45.0274Z" fill="black"/>
<path d="M35.46 45.0274H32.2709L32.2709 48.2171H35.46L35.46 45.0274Z" fill="black"/>
<path d="M38.6491 45.0274H35.46L35.46 48.2171H38.6493L38.6491 45.0274Z" fill="black"/>
<path d="M41.8385 45.0279L38.6491 45.0274L38.6493 48.2171H41.8385V45.0279Z" fill="black"/>
<path d="M48.2168 45.0274H45.0276L45.0277 48.2171H48.2169L48.2168 45.0274Z" fill="black"/>
<path d="M51.4061 45.0279L48.2168 45.0274L48.2169 48.2171H51.4061V45.0279Z" fill="black"/>
<path d="M57.7843 45.0274H54.5951L54.5953 48.2171H57.7845L57.7843 45.0274Z" fill="black"/>
<path d="M60.9735 45.0274H57.7843L57.7845 48.2171H60.9733L60.9735 45.0274Z" fill="black"/>
<path d="M67.3519 45.0274H64.1627L64.1625 48.2171H67.3517L67.3519 45.0274Z" fill="black"/>
<path d="M70.541 45.0279L67.3519 45.0274L67.3517 48.2171H70.541V45.0279Z" fill="black"/>
<path d="M76.9195 45.0274L73.7301 45.0279V48.2171H76.9193L76.9195 45.0274Z" fill="black"/>
<path d="M80.1087 45.0274H76.9195L76.9193 48.2171H80.1085L80.1087 45.0274Z" fill="black"/>
<path d="M83.2978 45.0274H80.1087L80.1085 48.2171H83.2977L83.2978 45.0274Z" fill="black"/>
<path d="M86.487 45.0274H83.2978L83.2977 48.2171H86.4869L86.487 45.0274Z" fill="black"/>
<path d="M92.8653 45.0279L89.6762 45.0274L89.6761 48.2171H92.8653V45.0279Z" fill="black"/>
<path d="M102.433 45.0279L99.2438 45.0274L99.2437 48.2171H102.433V45.0279Z" fill="black"/>
<path d="M3.56811 48.2167H0.378906V51.4059H3.56811V48.2167Z" fill="black"/>
<path d="M6.75731 48.2171L3.56811 48.2167V51.4059H6.75728L6.75731 48.2171Z" fill="black"/>
<path d="M9.9465 48.2171H6.75731L6.75728 51.4059H9.9465V48.2171Z" fill="black"/>
<path d="M13.1357 48.2171H9.9465V51.4059H13.1357L13.1357 48.2171Z" fill="black"/>
<path d="M16.3249 48.2171H13.1357L13.1357 51.4059H16.3249V48.2171Z" fill="black"/>
<path d="M25.8925 48.2167L22.7033 48.2171L22.7033 51.4059H25.8925V48.2167Z" fill="black"/>
<path d="M35.46 48.2171H32.2709V51.4059H35.46V48.2171Z" fill="black"/>
<path d="M38.6493 48.2171H35.46V51.4059H38.6493V48.2171Z" fill="black"/>
<path d="M45.0277 48.2171H41.8385L41.8385 51.4059H45.0277L45.0277 48.2171Z" fill="black"/>
<path d="M48.2169 48.2171H45.0277L45.0277 51.4059H48.2169V48.2171Z" fill="black"/>
<path d="M51.4061 48.2171H48.2169V51.4059H51.4061V48.2171Z" fill="black"/>
<path d="M54.5953 48.2171H51.4061V51.4059H54.5953L54.5953 48.2171Z" fill="black"/>
<path d="M57.7845 48.2171H54.5953L54.5953 51.4059H57.7845V48.2171Z" fill="black"/>
<path d="M60.9733 48.2171H57.7845V51.4059H60.9733V48.2171Z" fill="black"/>
<path d="M70.541 48.2171H67.3517L67.3517 51.4059H70.541V48.2171Z" fill="black"/>
<path d="M76.9193 48.2171H73.7301V51.4059H76.9193V48.2171Z" fill="black"/>
<path d="M83.2977 48.2171H80.1085L80.1085 51.4059H83.2977V48.2171Z" fill="black"/>
<path d="M86.4869 48.2171H83.2977V51.4059H86.4869V48.2171Z" fill="black"/>
<path d="M89.6761 48.2171H86.4869V51.4059H89.6761L89.6761 48.2171Z" fill="black"/>
<path d="M3.56811 51.4059H0.378906V54.5944H3.56811V51.4059Z" fill="black"/>
<path d="M6.75728 51.4059H3.56811V54.5944H6.75732L6.75728 51.4059Z" fill="black"/>
<path d="M13.1357 51.4059H9.9465L9.94646 54.5944H13.1357L13.1357 51.4059Z" fill="black"/>
<path d="M16.3249 51.4059H13.1357L13.1357 54.5944H16.3249L16.3249 51.4059Z" fill="black"/>
<path d="M19.514 51.4052L16.3249 51.4059L16.3249 54.5944H19.514V51.4052Z" fill="black"/>
<path d="M22.7033 51.4059L19.514 51.4052V54.5944H22.7032L22.7033 51.4059Z" fill="black"/>
<path d="M29.0816 51.4052L25.8925 51.4059L25.8924 54.5944H29.0816V51.4052Z" fill="black"/>
<path d="M32.2709 51.4059L29.0816 51.4052V54.5944H32.2709L32.2709 51.4059Z" fill="black"/>
<path d="M41.8385 51.4059H38.6493L38.6492 54.5944H41.8384L41.8385 51.4059Z" fill="black"/>
<path d="M57.7845 51.4059H54.5953L54.5951 54.5944H57.7843L57.7845 51.4059Z" fill="black"/>
<path d="M60.9733 51.4059H57.7845L57.7843 54.5944H60.9735L60.9733 51.4059Z" fill="black"/>
<path d="M64.1627 51.4052L60.9733 51.4059L60.9735 54.5944H64.1627V51.4052Z" fill="black"/>
<path d="M67.3517 51.4059L64.1627 51.4052V54.5944H67.3519L67.3517 51.4059Z" fill="black"/>
<path d="M70.541 51.4059H67.3517L67.3519 54.5944H70.5412L70.541 51.4059Z" fill="black"/>
<path d="M73.7301 51.4059H70.541L70.5412 54.5944H73.7303L73.7301 51.4059Z" fill="black"/>
<path d="M80.1085 51.4059H76.9193L76.9195 54.5944H80.1087L80.1085 51.4059Z" fill="black"/>
<path d="M86.4869 51.4059H83.2977L83.2979 54.5944H86.487L86.4869 51.4059Z" fill="black"/>
<path d="M92.8654 51.4052L89.6761 51.4059L89.6762 54.5944H92.8654V51.4052Z" fill="black"/>
<path d="M96.0546 51.4052H92.8654V54.5944H96.0546V51.4052Z" fill="black"/>
<path d="M102.433 51.4052H99.2438V54.5944H102.433V51.4052Z" fill="black"/>
<path d="M3.56811 54.5944H0.378906V57.7834H3.56811V54.5944Z" fill="black"/>
<path d="M6.75732 54.5944H3.56811V57.7834H6.75728L6.75732 54.5944Z" fill="black"/>
<path d="M16.3249 54.5944H13.1357L13.1357 57.7834H16.3249L16.3249 54.5944Z" fill="black"/>
<path d="M19.514 54.5944H16.3249L16.3249 57.7834H19.5141L19.514 54.5944Z" fill="black"/>
<path d="M25.8924 54.5944H22.7032L22.7033 57.7834H25.8925L25.8924 54.5944Z" fill="black"/>
<path d="M29.0816 54.5944H25.8924L25.8925 57.7834H29.0817L29.0816 54.5944Z" fill="black"/>
<path d="M32.2709 54.5944H29.0816L29.0817 57.7834H32.271L32.2709 54.5944Z" fill="black"/>
<path d="M35.46 54.5942L32.2709 54.5944L32.271 57.7834H35.46V54.5942Z" fill="black"/>
<path d="M51.4061 54.5942H48.2169V57.7834H51.4061V54.5942Z" fill="black"/>
<path d="M54.5951 54.5944L51.4061 54.5942V57.7834H54.5953L54.5951 54.5944Z" fill="black"/>
<path d="M60.9735 54.5944H57.7843L57.7841 57.7834H60.9733L60.9735 54.5944Z" fill="black"/>
<path d="M67.3519 54.5944H64.1627L64.1625 57.7834H67.3517L67.3519 54.5944Z" fill="black"/>
<path d="M73.7303 54.5944H70.5412L70.5413 57.7834H73.7304L73.7303 54.5944Z" fill="black"/>
<path d="M76.9195 54.5944H73.7303L73.7304 57.7834H76.9193L76.9195 54.5944Z" fill="black"/>
<path d="M80.1087 54.5944H76.9195L76.9193 57.7834H80.1085L80.1087 54.5944Z" fill="black"/>
<path d="M96.0546 54.5944H92.8654L92.8653 57.7834H96.0545L96.0546 54.5944Z" fill="black"/>
<path d="M99.2438 54.5944H96.0546L96.0545 57.7834H99.2437L99.2438 54.5944Z" fill="black"/>
<path d="M102.433 54.5944H99.2438L99.2437 57.7834H102.433L102.433 54.5944Z" fill="black"/>
<path d="M3.56811 57.7834H0.378906V60.9732H3.56811V57.7834Z" fill="black"/>
<path d="M9.94649 57.784L6.75728 57.7834L6.7573 60.9732H9.94649V57.784Z" fill="black"/>
<path d="M13.1357 57.7834L9.94649 57.784V60.9732H13.1357L13.1357 57.7834Z" fill="black"/>
<path d="M16.3249 57.7834H13.1357L13.1357 60.9732H16.3249L16.3249 57.7834Z" fill="black"/>
<path d="M22.7033 57.7834H19.5141L19.514 60.9732H22.7032L22.7033 57.7834Z" fill="black"/>
<path d="M25.8925 57.7834H22.7033L22.7032 60.9732H25.8924L25.8925 57.7834Z" fill="black"/>
<path d="M35.46 57.7834H32.271L32.2709 60.9732H35.46L35.46 57.7834Z" fill="black"/>
<path d="M41.8384 57.784H38.6492V60.9732H41.8384V57.784Z" fill="black"/>
<path d="M45.0275 57.784H41.8384V60.9732H45.0275V57.784Z" fill="black"/>
<path d="M51.4061 57.7834H48.2169L48.2167 60.9732H51.4059L51.4061 57.7834Z" fill="black"/>
<path d="M54.5953 57.7834H51.4061L51.4059 60.9732H54.5952L54.5953 57.7834Z" fill="black"/>
<path d="M57.7841 57.7834H54.5953L54.5952 60.9732H57.7843L57.7841 57.7834Z" fill="black"/>
<path d="M67.3517 57.7834H64.1625L64.1627 60.9732H67.3519L67.3517 57.7834Z" fill="black"/>
<path d="M70.5413 57.7834H67.3517L67.3519 60.9732H70.5412L70.5413 57.7834Z" fill="black"/>
<path d="M73.7304 57.7834H70.5413L70.5412 60.9732H73.7303L73.7304 57.7834Z" fill="black"/>
<path d="M76.9193 57.7834H73.7304L73.7303 60.9732H76.9194L76.9193 57.7834Z" fill="black"/>
<path d="M80.1085 57.7834H76.9193L76.9194 60.9732H80.1087L80.1085 57.7834Z" fill="black"/>
<path d="M83.2978 57.784L80.1085 57.7834L80.1087 60.9732H83.2978V57.784Z" fill="black"/>
<path d="M89.6762 57.784H86.487V60.9732H89.6762V57.784Z" fill="black"/>
<path d="M96.0545 57.7834H92.8653L92.8654 60.9732H96.0546L96.0545 57.7834Z" fill="black"/>
<path d="M102.433 57.7834H99.2437L99.2438 60.9732H102.433L102.433 57.7834Z" fill="black"/>
<path d="M6.7573 60.9732H3.56811L3.56814 64.1625H6.75732L6.7573 60.9732Z" fill="black"/>
<path d="M9.94649 60.9732H6.7573L6.75732 64.1625H9.94649V60.9732Z" fill="black"/>
<path d="M16.3249 60.9732H13.1357L13.1357 64.1625H16.3249V60.9732Z" fill="black"/>
<path d="M25.8924 60.9732H22.7032L22.7032 64.1625H25.8924V60.9732Z" fill="black"/>
<path d="M35.46 60.9732H32.2709V64.1625H35.46V60.9732Z" fill="black"/>
<path d="M41.8384 60.9732H38.6492V64.1625H41.8384V60.9732Z" fill="black"/>
<path d="M45.0275 60.9732H41.8384V64.1625H45.0275V60.9732Z" fill="black"/>
<path d="M51.4059 60.9732H48.2167V64.1625H51.4059V60.9732Z" fill="black"/>
<path d="M57.7843 60.9732H54.5952L54.5951 64.1625H57.7843V60.9732Z" fill="black"/>
<path d="M60.9735 60.9733L57.7843 60.9732V64.1625H60.9735V60.9733Z" fill="black"/>
<path d="M67.3519 60.9732H64.1627V64.1625H67.3519V60.9732Z" fill="black"/>
<path d="M70.5412 60.9732H67.3519V64.1625H70.5412V60.9732Z" fill="black"/>
<path d="M80.1087 60.9732H76.9194L76.9195 64.1625H80.1087V60.9732Z" fill="black"/>
<path d="M83.2978 60.9732H80.1087V64.1625H83.2978V60.9732Z" fill="black"/>
<path d="M86.487 60.9732H83.2978V64.1625H86.487L86.487 60.9732Z" fill="black"/>
<path d="M89.6762 60.9732H86.487L86.487 64.1625H89.6762V60.9732Z" fill="black"/>
<path d="M102.433 60.9732H99.2438V64.1625H102.433V60.9732Z" fill="black"/>
<path d="M3.56814 64.1625L0.378906 64.1631V67.3523H3.56811L3.56814 64.1625Z" fill="black"/>
<path d="M9.94649 64.1625H6.75732L6.75731 67.3523H9.9465L9.94649 64.1625Z" fill="black"/>
<path d="M19.5141 64.1631L16.3249 64.1625L16.3249 67.3523H19.5141V64.1631Z" fill="black"/>
<path d="M22.7032 64.1625L19.5141 64.1631V67.3523H22.7033L22.7032 64.1625Z" fill="black"/>
<path d="M25.8924 64.1625H22.7032L22.7033 67.3523H25.8925L25.8924 64.1625Z" fill="black"/>
<path d="M32.2709 64.1625L29.0817 64.1631V67.3523H32.271L32.2709 64.1625Z" fill="black"/>
<path d="M38.6492 64.1625H35.46L35.4601 67.3523H38.6493L38.6492 64.1625Z" fill="black"/>
<path d="M45.0275 64.1625H41.8384L41.8385 67.3523H45.0277L45.0275 64.1625Z" fill="black"/>
<path d="M48.2167 64.1625H45.0275L45.0277 67.3523H48.2169L48.2167 64.1625Z" fill="black"/>
<path d="M60.9735 64.1625H57.7843L57.7841 67.3523H60.9733L60.9735 64.1625Z" fill="black"/>
<path d="M64.1627 64.1625H60.9735L60.9733 67.3523H64.1629L64.1627 64.1625Z" fill="black"/>
<path d="M67.3519 64.1625H64.1627L64.1629 67.3523H67.3517L67.3519 64.1625Z" fill="black"/>
<path d="M86.487 64.1625H83.2978L83.2977 67.3523H86.4869L86.487 64.1625Z" fill="black"/>
<path d="M89.6762 64.1625H86.487L86.4869 67.3523H89.6761L89.6762 64.1625Z" fill="black"/>
<path d="M92.8653 64.1631L89.6762 64.1625L89.6761 67.3523H92.8653V64.1631Z" fill="black"/>
<path d="M96.0545 64.1631H92.8653V67.3523H96.0545V64.1631Z" fill="black"/>
<path d="M3.56811 67.3523H0.378906V70.5414H3.56811V67.3523Z" fill="black"/>
<path d="M13.1357 67.3521L9.9465 67.3523L9.94646 70.5414H13.1357V67.3521Z" fill="black"/>
<path d="M19.5141 67.3523H16.3249L16.3249 70.5414H19.514L19.5141 67.3523Z" fill="black"/>
<path d="M41.8385 67.3523H38.6493L38.6492 70.5414H41.8384L41.8385 67.3523Z" fill="black"/>
<path d="M54.5952 67.3521H51.406V70.5414H54.5952V67.3521Z" fill="black"/>
<path d="M57.7841 67.3523L54.5952 67.3521V70.5414H57.7843L57.7841 67.3523Z" fill="black"/>
<path d="M64.1629 67.3523H60.9733L60.9735 70.5414H64.1627L64.1629 67.3523Z" fill="black"/>
<path d="M73.7303 67.3521H70.5412V70.5414H73.7303V67.3521Z" fill="black"/>
<path d="M86.4869 67.3523H83.2977L83.2979 70.5414H86.487L86.4869 67.3523Z" fill="black"/>
<path d="M96.0545 67.3523H92.8653L92.8654 70.5414H96.0546L96.0545 67.3523Z" fill="black"/>
<path d="M99.2438 67.3521L96.0545 67.3523L96.0546 70.5414H99.2438V67.3521Z" fill="black"/>
<path d="M102.433 67.3521H99.2438V70.5414H102.433V67.3521Z" fill="black"/>
<path d="M16.3249 70.5414H13.1357L13.1357 73.7297H16.3249L16.3249 70.5414Z" fill="black"/>
<path d="M19.514 70.5414H16.3249L16.3249 73.7297H19.5141L19.514 70.5414Z" fill="black"/>
<path d="M22.7033 70.5406L19.514 70.5414L19.5141 73.7297H22.7033V70.5406Z" fill="black"/>
<path d="M25.8925 70.5406H22.7033V73.7297H25.8925V70.5406Z" fill="black"/>
<path d="M38.6492 70.5414L35.4601 70.5406V73.7297H38.6493L38.6492 70.5414Z" fill="black"/>
<path d="M41.8384 70.5414H38.6492L38.6493 73.7297H41.8385L41.8384 70.5414Z" fill="black"/>
<path d="M48.2169 70.5406H45.0277V73.7297H48.2169V70.5406Z" fill="black"/>
<path d="M54.5952 70.5414H51.406L51.4061 73.7297H54.5953L54.5952 70.5414Z" fill="black"/>
<path d="M60.9735 70.5414H57.7843L57.7841 73.7297H60.9733L60.9735 70.5414Z" fill="black"/>
<path d="M64.1627 70.5414H60.9735L60.9733 73.7297H64.1629L64.1627 70.5414Z" fill="black"/>
<path d="M70.5412 70.5414L67.3517 70.5406V73.7297H70.541L70.5412 70.5414Z" fill="black"/>
<path d="M76.9193 70.5406L73.7303 70.5414L73.7301 73.7297H76.9193V70.5406Z" fill="black"/>
<path d="M80.1085 70.5406H76.9193V73.7297H80.1085V70.5406Z" fill="black"/>
<path d="M83.2979 70.5414L80.1085 70.5406V73.7297H83.2977L83.2979 70.5414Z" fill="black"/>
<path d="M99.2438 70.5414H96.0546L96.0545 73.7297H99.2437L99.2438 70.5414Z" fill="black"/>
<path d="M102.433 70.5414H99.2438L99.2437 73.7297H102.433L102.433 70.5414Z" fill="black"/>
<path d="M13.1357 73.7297L9.94651 73.7294V76.9186H13.1357L13.1357 73.7297Z" fill="black"/>
<path d="M16.3249 73.7297H13.1357L13.1357 76.9186H16.3249V73.7297Z" fill="black"/>
<path d="M19.5141 73.7297H16.3249V76.9186H19.5141V73.7297Z" fill="black"/>
<path d="M25.8925 73.7297H22.7033L22.7033 76.9186H25.8925V73.7297Z" fill="black"/>
<path d="M29.0817 73.7294L25.8925 73.7297V76.9186H29.0817V73.7294Z" fill="black"/>
<path d="M35.4601 73.7297L32.2709 73.7294V76.9186H35.46L35.4601 73.7297Z" fill="black"/>
<path d="M45.0277 73.7297H41.8385L41.8385 76.9186H45.0277L45.0277 73.7297Z" fill="black"/>
<path d="M57.7841 73.7297H54.5953L54.5953 76.9186H57.7845L57.7841 73.7297Z" fill="black"/>
<path d="M60.9733 73.7297H57.7841L57.7845 76.9186H60.9733V73.7297Z" fill="black"/>
<path d="M64.1629 73.7297H60.9733V76.9186H64.1629V73.7297Z" fill="black"/>
<path d="M67.3517 73.7297H64.1629V76.9186H67.3517L67.3517 73.7297Z" fill="black"/>
<path d="M70.541 73.7297H67.3517L67.3517 76.9186H70.541V73.7297Z" fill="black"/>
<path d="M73.7301 73.7297H70.541V76.9186H73.7304L73.7301 73.7297Z" fill="black"/>
<path d="M83.2977 73.7297H80.1085L80.1085 76.9186H83.2977V73.7297Z" fill="black"/>
<path d="M86.4869 73.7294L83.2977 73.7297V76.9186H86.4869V73.7294Z" fill="black"/>
<path d="M92.8653 73.7294H89.6761V76.9186H92.8653V73.7294Z" fill="black"/>
<path d="M96.0545 73.7297L92.8653 73.7294V76.9186H96.0545V73.7297Z" fill="black"/>
<path d="M102.433 73.7297H99.2437L99.2437 76.9186H102.433V73.7297Z" fill="black"/>
<path d="M105.622 73.7294L102.433 73.7297V76.9186H105.622V73.7294Z" fill="black"/>
<path d="M3.56811 76.9191H0.378906V80.1083H3.56811V76.9191Z" fill="black"/>
<path d="M6.75732 76.9191H3.56811V80.1083H6.75732V76.9191Z" fill="black"/>
<path d="M9.94651 76.9186L6.75732 76.9191V80.1083H9.94649L9.94651 76.9186Z" fill="black"/>
<path d="M16.3249 76.9186H13.1357L13.1357 80.1083H16.3249L16.3249 76.9186Z" fill="black"/>
<path d="M22.7033 76.9186H19.5141L19.514 80.1083H22.7032L22.7033 76.9186Z" fill="black"/>
<path d="M25.8925 76.9186H22.7033L22.7032 80.1083H25.8924L25.8925 76.9186Z" fill="black"/>
<path d="M35.46 76.9186H32.2709L32.2709 80.1083H35.46L35.46 76.9186Z" fill="black"/>
<path d="M38.6491 76.9191L35.46 76.9186L35.46 80.1083H38.6491V76.9191Z" fill="black"/>
<path d="M45.0277 76.9186H41.8385L41.8383 80.1083H45.0275L45.0277 76.9186Z" fill="black"/>
<path d="M48.2168 76.9191L45.0277 76.9186L45.0275 80.1083H48.2168V76.9191Z" fill="black"/>
<path d="M51.4059 76.9191H48.2168V80.1083H51.4059V76.9191Z" fill="black"/>
<path d="M54.5953 76.9186L51.4059 76.9191V80.1083H54.5952L54.5953 76.9186Z" fill="black"/>
<path d="M57.7845 76.9186H54.5953L54.5952 80.1083H57.7843L57.7845 76.9186Z" fill="black"/>
<path d="M67.3517 76.9186H64.1629L64.1627 80.1083H67.3519L67.3517 76.9186Z" fill="black"/>
<path d="M70.541 76.9186H67.3517L67.3519 80.1083H70.5412L70.541 76.9186Z" fill="black"/>
<path d="M73.7304 76.9186H70.541L70.5412 80.1083H73.7303L73.7304 76.9186Z" fill="black"/>
<path d="M80.1085 76.9186L76.9195 76.9191V80.1083H80.1087L80.1085 76.9186Z" fill="black"/>
<path d="M83.2977 76.9186H80.1085L80.1087 80.1083H83.2978L83.2977 76.9186Z" fill="black"/>
<path d="M86.4869 76.9186H83.2977L83.2978 80.1083H86.487L86.4869 76.9186Z" fill="black"/>
<path d="M89.6761 76.9186H86.4869L86.487 80.1083H89.6762L89.6761 76.9186Z" fill="black"/>
<path d="M92.8653 76.9186H89.6761L89.6762 80.1083H92.8654L92.8653 76.9186Z" fill="black"/>
<path d="M96.0545 76.9186H92.8653L92.8654 80.1083H96.0546L96.0545 76.9186Z" fill="black"/>
<path d="M102.433 76.9186H99.2437L99.2438 80.1083H102.433L102.433 76.9186Z" fill="black"/>
<path d="M29.0817 80.1087L25.8924 80.1083L25.8925 83.2979H29.0817V80.1087Z" fill="black"/>
<path d="M35.46 80.1083H32.2709L32.2709 83.2979H35.46L35.46 80.1083Z" fill="black"/>
<path d="M38.6491 80.1083H35.46L35.46 83.2979H38.6493L38.6491 80.1083Z" fill="black"/>
<path d="M45.0275 80.1083H41.8383L41.8385 83.2979H45.0277L45.0275 80.1083Z" fill="black"/>
<path d="M48.2168 80.1083H45.0275L45.0277 83.2979H48.2169L48.2168 80.1083Z" fill="black"/>
<path d="M51.4059 80.1083H48.2168L48.2169 83.2979H51.4061L51.4059 80.1083Z" fill="black"/>
<path d="M54.5952 80.1083H51.4059L51.4061 83.2979H54.5953L54.5952 80.1083Z" fill="black"/>
<path d="M57.7843 80.1083H54.5952L54.5953 83.2979H57.7845L57.7843 80.1083Z" fill="black"/>
<path d="M70.5412 80.1083H67.3519L67.3517 83.2979H70.541L70.5412 80.1083Z" fill="black"/>
<path d="M73.7303 80.1083H70.5412L70.541 83.2979H73.7304L73.7303 80.1083Z" fill="black"/>
<path d="M76.9195 80.1083H73.7303L73.7304 83.2979H76.9193L76.9195 80.1083Z" fill="black"/>
<path d="M80.1087 80.1083H76.9195L76.9193 83.2979H80.1085L80.1087 80.1083Z" fill="black"/>
<path d="M92.8654 80.1083H89.6762L89.6761 83.2979H92.8653L92.8654 80.1083Z" fill="black"/>
<path d="M99.2438 80.1083H96.0546L96.0545 83.2979H99.2437L99.2438 80.1083Z" fill="black"/>
<path d="M29.0817 83.2979H25.8925V86.4866H29.0817V83.2979Z" fill="black"/>
<path d="M32.2709 83.2979H29.0817V86.4866H32.271L32.2709 83.2979Z" fill="black"/>
<path d="M35.46 83.2979H32.2709L32.271 86.4866H35.46V83.2979Z" fill="black"/>
<path d="M48.2169 83.2979H45.0277L45.0277 86.4866H48.2169V83.2979Z" fill="black"/>
<path d="M51.4061 83.2979H48.2169V86.4866H51.4061V83.2979Z" fill="black"/>
<path d="M60.9733 83.2974L57.7845 83.2979L57.7841 86.4866H60.9733V83.2974Z" fill="black"/>
<path d="M80.1085 83.2979H76.9193L76.9193 86.4866H80.1085V83.2979Z" fill="black"/>
<path d="M86.4869 83.2974H83.2977V86.4866H86.4869V83.2974Z" fill="black"/>
<path d="M92.8653 83.2979H89.6761V86.4866H92.8653V83.2979Z" fill="black"/>
<path d="M96.0545 83.2979H92.8653V86.4866H96.0545V83.2979Z" fill="black"/>
<path d="M38.6491 86.4872L35.46 86.4866L35.46 89.6764H38.6491V86.4872Z" fill="black"/>
<path d="M48.2169 86.4866H45.0277L45.0276 89.6764H48.2168L48.2169 86.4866Z" fill="black"/>
<path d="M51.4061 86.4866H48.2169L48.2168 89.6764H51.4059L51.4061 86.4866Z" fill="black"/>
<path d="M54.5952 86.4872L51.4061 86.4866L51.4059 89.6764H54.5952V86.4872Z" fill="black"/>
<path d="M64.1627 86.4872L60.9733 86.4866L60.9735 89.6764H64.1627V86.4872Z" fill="black"/>
<path d="M73.7303 86.4872H70.5412V89.6764H73.7303V86.4872Z" fill="black"/>
<path d="M80.1085 86.4866H76.9193L76.9195 89.6764H80.1087L80.1085 86.4866Z" fill="black"/>
<path d="M92.8653 86.4866H89.6761L89.6762 89.6764H92.8654L92.8653 86.4866Z" fill="black"/>
<path d="M105.622 86.4872H102.433V89.6764H105.622V86.4872Z" fill="black"/>
<path d="M29.0817 89.6758H25.8925V92.865H29.0817V89.6758Z" fill="black"/>
<path d="M38.6491 89.6764H35.46L35.4601 92.865H38.6493L38.6491 89.6764Z" fill="black"/>
<path d="M41.8385 89.6758L38.6491 89.6764L38.6493 92.865H41.8385V89.6758Z" fill="black"/>
<path d="M45.0276 89.6764L41.8385 89.6758V92.865H45.0277L45.0276 89.6764Z" fill="black"/>
<path d="M48.2168 89.6764H45.0276L45.0277 92.865H48.2169L48.2168 89.6764Z" fill="black"/>
<path d="M54.5952 89.6764H51.4059L51.4061 92.865H54.5953L54.5952 89.6764Z" fill="black"/>
<path d="M64.1627 89.6764H60.9735L60.9737 92.865H64.1629L64.1627 89.6764Z" fill="black"/>
<path d="M73.7303 89.6764H70.5412L70.5413 92.865H73.7304L73.7303 89.6764Z" fill="black"/>
<path d="M80.1087 89.6764H76.9195L76.9193 92.865H80.1085L80.1087 89.6764Z" fill="black"/>
<path d="M83.2977 89.6758L80.1087 89.6764L80.1085 92.865H83.2977V89.6758Z" fill="black"/>
<path d="M86.4869 89.6758H83.2977V92.865H86.4869V89.6758Z" fill="black"/>
<path d="M89.6762 89.6764L86.4869 89.6758V92.865H89.6761L89.6762 89.6764Z" fill="black"/>
<path d="M92.8654 89.6764H89.6762L89.6761 92.865H92.8653L92.8654 89.6764Z" fill="black"/>
<path d="M96.0545 89.6758L92.8654 89.6764L92.8653 92.865H96.0545V89.6758Z" fill="black"/>
<path d="M105.622 89.6764H102.433L102.433 92.865H105.622L105.622 89.6764Z" fill="black"/>
<path d="M32.2709 92.8648L29.0817 92.865L29.0816 96.054H32.2709V92.8648Z" fill="black"/>
<path d="M35.4601 92.865L32.2709 92.8648V96.054H35.46L35.4601 92.865Z" fill="black"/>
<path d="M41.8385 92.865H38.6493L38.6492 96.054H41.8384L41.8385 92.865Z" fill="black"/>
<path d="M45.0277 92.865H41.8385L41.8384 96.054H45.0275L45.0277 92.865Z" fill="black"/>
<path d="M60.9737 92.865L57.7843 92.8648V96.054H60.9735L60.9737 92.865Z" fill="black"/>
<path d="M64.1629 92.865H60.9737L60.9735 96.054H64.1627L64.1629 92.865Z" fill="black"/>
<path d="M67.3519 92.8648L64.1629 92.865L64.1627 96.054H67.3519V92.8648Z" fill="black"/>
<path d="M76.9193 92.865H73.7304L73.7302 96.054H76.9194L76.9193 92.865Z" fill="black"/>
<path d="M86.4869 92.865H83.2977L83.2979 96.054H86.487L86.4869 92.865Z" fill="black"/>
<path d="M89.6761 92.865H86.4869L86.487 96.054H89.6762L89.6761 92.865Z" fill="black"/>
<path d="M92.8653 92.865H89.6761L89.6762 96.054H92.8654L92.8653 92.865Z" fill="black"/>
<path d="M96.0545 92.865H92.8653L92.8654 96.054H96.0546L96.0545 92.865Z" fill="black"/>
<path d="M99.2438 92.8648L96.0545 92.865L96.0546 96.054H99.2438V92.8648Z" fill="black"/>
<path d="M102.433 92.865L99.2438 92.8648V96.054H102.433L102.433 92.865Z" fill="black"/>
<path d="M32.2709 96.054H29.0816V99.2434H32.2709V96.054Z" fill="black"/>
<path d="M41.8384 96.054H38.6492V99.2434H41.8384V96.054Z" fill="black"/>
<path d="M48.2168 96.0542L45.0275 96.054L45.0276 99.2434H48.2168V96.0542Z" fill="black"/>
<path d="M51.4059 96.0542H48.2168V99.2434H51.4059V96.0542Z" fill="black"/>
<path d="M60.9735 96.054H57.7843V99.2434H60.9735V96.054Z" fill="black"/>
<path d="M67.3519 96.054H64.1627L64.1627 99.2434H67.3519V96.054Z" fill="black"/>
<path d="M70.5412 96.0542L67.3519 96.054V99.2434H70.5412V96.0542Z" fill="black"/>
<path d="M83.2979 96.054L80.1086 96.0542V99.2434H83.2978L83.2979 96.054Z" fill="black"/>
<path d="M86.487 96.054H83.2979L83.2978 99.2434H86.487V96.054Z" fill="black"/>
<path d="M89.6762 96.054H86.487V99.2434H89.6762V96.054Z" fill="black"/>
<path d="M92.8654 96.054H89.6762V99.2434H92.8654V96.054Z" fill="black"/>
<path d="M96.0546 96.054H92.8654V99.2434H96.0546V96.054Z" fill="black"/>
<path d="M38.6492 99.2434L35.4601 99.2439V102.433H38.6493L38.6492 99.2434Z" fill="black"/>
<path d="M41.8384 99.2434H38.6492L38.6493 102.433H41.8385L41.8384 99.2434Z" fill="black"/>
<path d="M45.0276 99.2434H41.8384L41.8385 102.433H45.0277L45.0276 99.2434Z" fill="black"/>
<path d="M51.4059 99.2434H48.2168L48.2169 102.433H51.4061L51.4059 99.2434Z" fill="black"/>
<path d="M54.5953 99.2439L51.4059 99.2434L51.4061 102.433H54.5953V99.2439Z" fill="black"/>
<path d="M57.7843 99.2434L54.5953 99.2439V102.433H57.7845L57.7843 99.2434Z" fill="black"/>
<path d="M60.9735 99.2434H57.7843L57.7845 102.433H60.9733L60.9735 99.2434Z" fill="black"/>
<path d="M70.5412 99.2434H67.3519L67.3517 102.433H70.541L70.5412 99.2434Z" fill="black"/>
<path d="M76.9193 99.2439H73.7301V102.433H76.9193V99.2439Z" fill="black"/>
<path d="M80.1086 99.2434L76.9193 99.2439V102.433H80.1085L80.1086 99.2434Z" fill="black"/>
<path d="M86.487 99.2434H83.2978L83.2977 102.433H86.4869L86.487 99.2434Z" fill="black"/>
<path d="M29.0817 102.433H25.8925V105.622H29.0817V102.433Z" fill="black"/>
<path d="M35.4601 102.433L32.2709 102.433V105.622H35.46L35.4601 102.433Z" fill="black"/>
<path d="M57.7845 102.433H54.5953L54.5953 105.622H57.7845V102.433Z" fill="black"/>
<path d="M64.1629 102.433L60.9733 102.433L60.9737 105.622H64.1629V102.433Z" fill="black"/>
<path d="M67.3517 102.433L64.1629 102.433V105.622H67.3517L67.3517 102.433Z" fill="black"/>
<path d="M70.541 102.433H67.3517L67.3517 105.622H70.541V102.433Z" fill="black"/>
<path d="M73.7301 102.433H70.541V105.622H73.7304L73.7301 102.433Z" fill="black"/>
<path d="M76.9193 102.433H73.7301L73.7304 105.622H76.9193V102.433Z" fill="black"/>
<path d="M80.1085 102.433H76.9193V105.622H80.1085V102.433Z" fill="black"/>
<path d="M83.2977 102.433H80.1085V105.622H83.2977L83.2977 102.433Z" fill="black"/>
<path d="M86.4869 102.433H83.2977L83.2977 105.622H86.4869V102.433Z" fill="black"/>
<path d="M96.0545 102.433H92.8653V105.622H96.0545V102.433Z" fill="black"/>
<path d="M105.622 102.433H102.433V105.622H105.622V102.433Z" fill="black"/>
<path d="M0.378906 0.378662V22.703H22.7032V0.378662H0.378906ZM19.3546 19.3543H3.72756V3.72731H19.3546V19.3543Z" fill="black"/>
<path d="M83.2979 0.378662V22.703H105.622V0.378662H83.2979ZM102.274 19.3543H86.6465V3.72731H102.274V19.3543Z" fill="black"/>
<path d="M0.378906 83.2974V105.622H22.7032V83.2974H0.378906ZM19.3546 102.273H3.72756V86.6461H19.3546V102.273Z" fill="black"/>
<path d="M16.3249 6.75742H6.7573V16.325H16.3249V6.75742Z" fill="black"/>
<path d="M99.2438 6.75742H89.6762V16.325H99.2438V6.75742Z" fill="black"/>
<path d="M16.3249 89.6758H6.75731V99.2434H16.3249V89.6758Z" fill="black"/>
</svg>
