<svg width="20" height="20" viewBox="0 0 20 20" fill="none" xmlns="http://www.w3.org/2000/svg">
<path d="M9.99999 17.2541C5.38332 17.2541 0.416656 16.4416 0.416656 14.65C0.416656 14.0708 1.02916 13.1833 2.39166 13.025C2.44637 13.0187 2.5018 13.0232 2.55476 13.0383C2.60772 13.0535 2.65718 13.0789 2.70032 13.1131C2.74346 13.1474 2.77943 13.1898 2.80619 13.2379C2.83294 13.2861 2.84995 13.339 2.85624 13.3937C2.86253 13.4484 2.85799 13.5039 2.84286 13.5568C2.82773 13.6098 2.80233 13.6592 2.76808 13.7024C2.73384 13.7455 2.69144 13.7815 2.64329 13.8082C2.59515 13.835 2.54221 13.852 2.48749 13.8583C1.55832 13.9666 1.23749 14.5208 1.23749 14.6583C1.23749 15.2625 4.32499 16.4291 9.98749 16.4291C15.65 16.4291 18.7375 15.2625 18.7375 14.6583C18.7375 14.325 18.2375 14.0291 17.4875 13.925C17.377 13.91 17.2769 13.8518 17.2093 13.7631C17.1417 13.6745 17.1122 13.5626 17.1271 13.452C17.142 13.3415 17.2002 13.2415 17.2889 13.1739C17.3776 13.1063 17.4895 13.0767 17.6 13.0916C18.8125 13.2583 19.5667 13.8583 19.5667 14.65C19.5833 16.4416 14.6167 17.2541 9.99999 17.2541Z" fill="#21B546"/>
<path d="M9.99998 9.42917C8.66665 9.42917 2.02081 9.35 2.02081 7.7625C2.02081 6.5125 6.20831 6.18333 8.68748 6.09583C8.7422 6.09447 8.79665 6.10389 8.84772 6.12356C8.8988 6.14324 8.9455 6.17278 8.98516 6.21051C9.02482 6.24823 9.05666 6.2934 9.07886 6.34342C9.10106 6.39345 9.11319 6.44737 9.11456 6.50208C9.11593 6.5568 9.10651 6.61125 9.08683 6.66233C9.06716 6.7134 9.03761 6.7601 8.99989 6.79976C8.96217 6.83942 8.917 6.87126 8.86697 6.89346C8.81694 6.91567 8.76303 6.9278 8.70831 6.92917C5.43748 7.025 3.45415 7.44583 2.92915 7.7625C3.55415 8.13333 6.16665 8.59583 9.98331 8.59583C13.8 8.59583 16.4125 8.12917 17.0375 7.7625C16.5125 7.45833 14.5375 7.0375 11.2583 6.92917C11.2036 6.9278 11.1497 6.91567 11.0997 6.89346C11.0496 6.87126 11.0045 6.83942 10.9667 6.79976C10.929 6.7601 10.8995 6.7134 10.8798 6.66233C10.8601 6.61125 10.8507 6.5568 10.8521 6.50208C10.8534 6.44737 10.8656 6.39345 10.8878 6.34342C10.91 6.2934 10.9418 6.24823 10.9815 6.21051C11.0211 6.17278 11.0678 6.14324 11.1189 6.12356C11.17 6.10389 11.2244 6.09447 11.2791 6.09583C13.7791 6.16667 17.9458 6.475 17.9458 7.7625C17.9791 9.35 11.3333 9.42917 9.99998 9.42917Z" fill="#21B546"/>
<path d="M11.2208 14.7667C11.1779 14.7707 11.1346 14.7707 11.0917 14.7667C10.9596 14.7449 10.8333 14.6967 10.7202 14.6251C10.6072 14.5536 10.5096 14.46 10.4333 14.3501L10.225 14.0542C10.1417 13.9376 10.0958 13.9709 10.0792 13.9834L9.16666 14.5834C9.06114 14.6552 8.94144 14.7035 8.81565 14.7251C8.68985 14.7466 8.5609 14.741 8.43749 14.7084C8.29017 14.6652 8.15413 14.5901 8.03894 14.4886C7.92376 14.3871 7.83224 14.2616 7.77082 14.1209L7.59166 13.7501C7.565 13.6854 7.51628 13.6322 7.45416 13.6001C7.44257 13.5996 7.43103 13.6017 7.42027 13.606C7.40951 13.6103 7.39976 13.6168 7.39166 13.6251L6.79166 14.1334C6.69408 14.2143 6.58065 14.2739 6.45865 14.3083C6.33666 14.3428 6.20881 14.3513 6.08332 14.3334C5.94675 14.3067 5.81711 14.2522 5.70244 14.1734C5.58776 14.0946 5.49049 13.993 5.41666 13.8751L4.99999 13.2417C4.97732 13.1997 4.94037 13.1672 4.89582 13.1501C4.8852 13.1494 4.87456 13.1509 4.86453 13.1545C4.85451 13.1581 4.84531 13.1637 4.83749 13.1709L4.36666 13.5417C4.25607 13.6294 4.12657 13.6901 3.98843 13.7191C3.85029 13.748 3.7073 13.7443 3.57082 13.7084C3.40511 13.6552 3.25426 13.5637 3.13048 13.4414C3.00669 13.3191 2.91346 13.1693 2.85832 13.0042C2.80832 12.8751 2.74582 12.8126 2.70416 12.8001C2.66249 12.7876 2.70416 12.8001 2.65832 12.8001C2.61059 12.8283 2.55771 12.8467 2.50278 12.8542C2.44785 12.8617 2.39198 12.8582 2.33843 12.8438C2.28488 12.8294 2.23473 12.8045 2.19093 12.7706C2.14712 12.7366 2.11054 12.6942 2.08332 12.6459C2.02995 12.5511 2.01577 12.4392 2.04379 12.3341C2.07182 12.229 2.13984 12.139 2.23332 12.0834C2.34401 12.0192 2.46755 11.9803 2.59507 11.9694C2.72258 11.9586 2.8509 11.9762 2.97082 12.0209C3.1214 12.0803 3.2572 12.1718 3.36875 12.2891C3.4803 12.4064 3.5649 12.5467 3.61666 12.7001C3.67499 12.8459 3.74582 12.9001 3.77916 12.9084C3.81249 12.9167 3.77916 12.9084 3.83749 12.9084L4.30832 12.5001C4.40583 12.4257 4.51738 12.3719 4.63626 12.3418C4.75513 12.3117 4.87886 12.306 4.99999 12.3251C5.13648 12.352 5.26602 12.4065 5.38067 12.4854C5.49531 12.5642 5.59263 12.6656 5.66666 12.7834L6.08332 13.4126C6.09414 13.4349 6.10928 13.4549 6.12788 13.4713C6.14647 13.4878 6.16815 13.5004 6.19166 13.5084C6.19166 13.5084 6.23332 13.5084 6.24999 13.4834L6.84999 12.9959C6.95478 12.9077 7.0783 12.8446 7.21116 12.8114C7.34402 12.7782 7.48271 12.7757 7.61666 12.8042C7.77367 12.8423 7.91988 12.9157 8.04411 13.019C8.16833 13.1223 8.26726 13.2526 8.33332 13.4001L8.50832 13.7542C8.53253 13.8204 8.58196 13.8744 8.64582 13.9042C8.64582 13.9042 8.64582 13.9042 8.69582 13.9042L9.60832 13.2876C9.7109 13.2193 9.82614 13.1722 9.94721 13.1493C10.0683 13.1264 10.1927 13.1279 10.3132 13.154C10.4336 13.18 10.5476 13.23 10.6484 13.3009C10.7492 13.3718 10.8348 13.4622 10.9 13.5667L11.1083 13.8626C11.1319 13.9019 11.1689 13.9315 11.2125 13.9459C11.2225 13.9464 11.2325 13.9449 11.2418 13.9413C11.2511 13.9377 11.2596 13.9322 11.2667 13.9251L12.2417 13.1667C12.3353 13.0903 12.4432 13.0333 12.5591 12.999C12.675 12.9647 12.7965 12.9537 12.9167 12.9667C13.0482 12.9884 13.1739 13.0365 13.2864 13.1081C13.3988 13.1798 13.4955 13.2734 13.5708 13.3834L13.7083 13.5709C13.75 13.6292 13.7917 13.6501 13.8125 13.6501C13.8333 13.6501 13.8625 13.6501 13.9042 13.5876L14.575 12.7542C14.666 12.6409 14.782 12.5502 14.9139 12.4892C15.0458 12.4282 15.1901 12.3985 15.3353 12.4026C15.4806 12.4066 15.623 12.4442 15.7513 12.5124C15.8796 12.5807 15.9904 12.6777 16.075 12.7959C16.1125 12.8417 16.15 12.8751 16.1792 12.8709C16.2083 12.8667 16.2625 12.8334 16.3167 12.7251L16.4375 12.4876C16.5025 12.3575 16.5932 12.242 16.7042 12.1482C16.8153 12.0543 16.9443 11.9841 17.0833 11.9417C17.1971 11.905 17.3171 11.892 17.4361 11.9035C17.555 11.9149 17.6704 11.9506 17.775 12.0084C17.8722 12.0609 17.9446 12.1498 17.9763 12.2557C18.0079 12.3616 17.9962 12.4757 17.9437 12.573C17.8912 12.6702 17.8023 12.7426 17.6964 12.7743C17.5905 12.8059 17.4764 12.7942 17.3792 12.7417C17.3657 12.7366 17.3509 12.7366 17.3375 12.7417C17.2799 12.7721 17.2355 12.8225 17.2125 12.8834L17.0875 13.1251C17.0119 13.288 16.8947 13.4281 16.7476 13.5313C16.6006 13.6344 16.4289 13.697 16.25 13.7126C16.0871 13.7201 15.9249 13.6858 15.779 13.6128C15.6331 13.5399 15.5084 13.4308 15.4167 13.2959C15.3375 13.1917 15.3125 13.1792 15.2292 13.2959L14.5542 14.1292C14.4653 14.2477 14.3491 14.343 14.2156 14.4071C14.082 14.4711 13.935 14.502 13.787 14.4971C13.6389 14.4922 13.4943 14.4516 13.3652 14.3789C13.2362 14.3061 13.1266 14.2033 13.0458 14.0792L12.9167 13.8709C12.8792 13.8167 12.8417 13.7917 12.8208 13.7917C12.8124 13.7877 12.8031 13.7855 12.7937 13.7855C12.7844 13.7855 12.7751 13.7877 12.7667 13.7917L11.7792 14.5834C11.6184 14.7044 11.4221 14.7688 11.2208 14.7667Z" fill="#21B546"/>
<path d="M9.99998 15.8335C8.66665 15.8335 2.02081 15.7543 2.02081 14.1668V7.75846C2.02081 7.64796 2.06471 7.54198 2.14285 7.46384C2.22099 7.3857 2.32697 7.3418 2.43748 7.3418C2.54799 7.3418 2.65397 7.3857 2.73211 7.46384C2.81025 7.54198 2.85415 7.64796 2.85415 7.75846V14.1001C3.21248 14.4251 5.62498 15.0001 9.99998 15.0001C14.375 15.0001 16.7875 14.4168 17.1458 14.0918V7.75846C17.1458 7.64796 17.1897 7.54198 17.2679 7.46384C17.346 7.3857 17.452 7.3418 17.5625 7.3418C17.673 7.3418 17.779 7.3857 17.8571 7.46384C17.9352 7.54198 17.9791 7.64796 17.9791 7.75846V14.1668C17.9791 15.7626 11.3333 15.8335 9.99998 15.8335Z" fill="#21B546"/>
<path d="M10 8.29587C9.4125 8.29587 8.19583 8.29587 8.19583 7.04587C8.19583 6.56737 8.38591 6.10847 8.72426 5.77013C9.06261 5.43178 9.5215 5.2417 10 5.2417C10.4785 5.2417 10.9374 5.43178 11.2757 5.77013C11.6141 6.10847 11.8042 6.56737 11.8042 7.04587C11.8042 8.29587 10.5875 8.29587 10 8.29587ZM10 6.0792C9.74252 6.0792 9.49558 6.18148 9.31352 6.36355C9.13145 6.54562 9.02916 6.79255 9.02916 7.05003C9.02916 7.30837 9.02916 7.4667 10 7.4667C10.9708 7.4667 10.9708 7.31253 10.9708 7.05003C10.9708 6.79255 10.8685 6.54562 10.6865 6.36355C10.5044 6.18148 10.2575 6.0792 10 6.0792Z" fill="#21B546"/>
<path d="M13.4534 4.06568V2.89929H12.3601V2.07703H13.4534V0.910645H14.3244V2.07703H15.3933V2.89929H14.3244V4.06568H13.4534Z" fill="#21B546"/>
<path d="M11.7346 3.88593C11.4544 4.29198 11.026 4.49501 10.4494 4.49501C9.87281 4.49501 9.44442 4.29198 9.16425 3.88593C8.88204 3.47784 8.74094 2.93069 8.74094 2.24446C8.74094 1.56432 8.88204 1.02021 9.16425 0.612125C9.44645 0.204042 9.87484 0 10.4494 0C11.024 0 11.4524 0.204042 11.7346 0.612125C12.0168 1.02021 12.1579 1.56432 12.1579 2.24446C12.1579 2.93069 12.0168 3.47784 11.7346 3.88593ZM9.88905 3.31035C9.99665 3.53571 10.1834 3.64838 10.4494 3.64838C10.7154 3.64838 10.9042 3.53571 11.0158 3.31035C11.1255 3.08499 11.1803 2.72969 11.1803 2.24446C11.1803 1.76531 11.1235 1.41205 11.0098 1.18466C10.8981 0.9593 10.7113 0.84662 10.4494 0.84662C10.1875 0.84662 10.0007 0.9593 9.88905 1.18466C9.77536 1.41205 9.71851 1.76531 9.71851 2.24446C9.71851 2.73375 9.77536 3.08905 9.88905 3.31035Z" fill="#21B546"/>
<path d="M6.6841 4.49501C6.12375 4.49501 5.70349 4.30416 5.42331 3.92247C5.1411 3.53875 5 3.00682 5 2.32668C5 1.62421 5.14922 1.06081 5.44767 0.636488C5.74612 0.212163 6.1806 0 6.7511 0C7.20182 0 7.56016 0.120801 7.82613 0.362402C8.09412 0.606034 8.24944 0.902452 8.29207 1.25166H7.37541C7.2942 0.985693 7.0861 0.852711 6.7511 0.852711C6.49123 0.852711 6.28414 0.945088 6.12984 1.12984C5.9796 1.31054 5.90448 1.59071 5.90448 1.97037H5.92885C6.16436 1.71659 6.47194 1.5897 6.8516 1.5897C7.29217 1.5897 7.64746 1.7308 7.91749 2.01301C8.18345 2.29724 8.31644 2.62412 8.31644 2.99362C8.31644 3.41998 8.16924 3.77731 7.87485 4.0656C7.5825 4.35187 7.18558 4.49501 6.6841 4.49501ZM6.6841 3.64838C6.87901 3.64838 7.04346 3.59052 7.17746 3.4748C7.30943 3.35501 7.37541 3.19868 7.37541 3.00581C7.37541 2.81496 7.31349 2.66066 7.18964 2.54291C7.06782 2.42718 6.89931 2.36932 6.6841 2.36932C6.48311 2.36932 6.31866 2.42718 6.19075 2.54291C6.06284 2.65863 5.99889 2.81293 5.99889 3.00581C5.99889 3.20883 6.06284 3.36516 6.19075 3.4748C6.31257 3.59052 6.47702 3.64838 6.6841 3.64838Z" fill="#21B546"/>
</svg>
