<svg width="15" height="18" viewBox="0 0 15 18" fill="none" xmlns="http://www.w3.org/2000/svg">
<path d="M5.39233 10.2165L9.48249 12.8459M9.48249 5.15411L5.39234 7.7835M13.625 14.0625C13.625 15.3051 12.6176 16.3125 11.375 16.3125C10.1324 16.3125 9.125 15.3051 9.125 14.0625C9.125 12.8199 10.1324 11.8125 11.375 11.8125C12.6176 11.8125 13.625 12.8199 13.625 14.0625ZM5.75 9C5.75 10.2426 4.74264 11.25 3.5 11.25C2.25736 11.25 1.25 10.2426 1.25 9C1.25 7.75736 2.25736 6.75 3.5 6.75C4.74264 6.75 5.75 7.75736 5.75 9ZM13.625 3.9375C13.625 5.18014 12.6176 6.1875 11.375 6.1875C10.1324 6.1875 9.125 5.18014 9.125 3.9375C9.125 2.69486 10.1324 1.6875 11.375 1.6875C12.6176 1.6875 13.625 2.69486 13.625 3.9375Z" stroke="#455468" stroke-width="1.5" stroke-linecap="round" stroke-linejoin="round"/>
</svg>
