<svg width="16" height="16" viewBox="0 0 16 16" fill="none" xmlns="http://www.w3.org/2000/svg">
<path d="M7.99993 8L14.7499 1.25M12.7729 3.22703C11.5772 2.0337 9.97717 1.33261 8.28933 1.26247C6.60149 1.19233 4.9488 1.75824 3.65822 2.84825C2.36764 3.93827 1.53319 5.47298 1.31994 7.14876C1.10669 8.82454 1.53019 10.5193 2.50664 11.8978C3.4831 13.2763 4.94139 14.2381 6.593 14.5929C8.24462 14.9477 9.96925 14.6697 11.4257 13.8139C12.8822 12.958 13.9643 11.5867 14.4581 9.9712C14.952 8.35569 14.8214 6.61368 14.0924 5.0898M10.3864 5.61351C9.82844 5.05556 9.0926 4.71077 8.30679 4.63905C7.52097 4.56733 6.73487 4.77323 6.08511 5.22095C5.43535 5.66868 4.96301 6.32992 4.75019 7.08976C4.53737 7.8496 4.59752 8.65998 4.92019 9.38007C5.24287 10.1002 5.80765 10.6844 6.5164 11.0313C7.22514 11.3782 8.03302 11.4658 8.79964 11.2788C9.56625 11.0919 10.2431 10.6422 10.7126 10.008C11.1821 9.37379 11.4145 8.59512 11.3695 7.80733" stroke="#5E718D" stroke-width="1.5" stroke-linecap="round" stroke-linejoin="round"/>
</svg>
