<svg width="18" height="18" viewBox="0 0 18 18" fill="none" xmlns="http://www.w3.org/2000/svg">
<path d="M2.17871 15.1868C2.87028 13.9898 3.86467 12.9959 5.062 12.3048C6.25934 11.6138 7.61744 11.25 8.99988 11.25C10.3823 11.25 11.7404 11.6138 12.9377 12.3049C14.135 12.996 15.1294 13.9899 15.821 15.187M12.3748 3.9375H15.7498M14.0623 2.25V5.625M13.2221 8.30973C12.9214 9.12189 12.3925 9.82993 11.699 10.3488C11.0056 10.8677 10.1771 11.1753 9.31302 11.2347C8.44899 11.2941 7.58617 11.1028 6.82823 10.6837C6.07029 10.2647 5.44946 9.63567 5.04033 8.87232C4.6312 8.10897 4.45116 7.24374 4.52185 6.38055C4.59254 5.51736 4.91095 4.69294 5.43882 4.00633C5.96669 3.31972 6.68158 2.80011 7.4976 2.50994C8.31362 2.21978 9.19607 2.17138 10.0389 2.37058" stroke="#21B546" stroke-width="1.5" stroke-linecap="round" stroke-linejoin="round"/>
</svg>
