<svg width="17" height="10" viewBox="0 0 17 10" fill="none" xmlns="http://www.w3.org/2000/svg">
<path d="M11.875 9.5L16.375 5.5625M5.125 9.5L0.625 5.5625M11.875 0.5L16.375 4.4375M5.125 0.5L0.625 4.4375M1.1875 0.5H15.8125C16.1232 0.5 16.375 0.75184 16.375 1.0625V8.9375C16.375 9.24816 16.1232 9.5 15.8125 9.5H1.1875C0.87684 9.5 0.625 9.24816 0.625 8.9375V1.0625C0.625 0.75184 0.87684 0.5 1.1875 0.5ZM10.75 5C10.75 6.24264 9.74264 7.25 8.5 7.25C7.25736 7.25 6.25 6.24264 6.25 5C6.25 3.75736 7.25736 2.75 8.5 2.75C9.74264 2.75 10.75 3.75736 10.75 5Z" stroke="#21B546" stroke-linecap="round" stroke-linejoin="round"/>
</svg>
