<svg width="18" height="18" viewBox="0 0 18 18" fill="none" xmlns="http://www.w3.org/2000/svg">
<path d="M3.19421 12.4451C2.35557 11.0314 2.06187 9.36012 2.36826 7.74515C2.67465 6.13018 3.56006 4.68261 4.85823 3.67425C6.15639 2.6659 7.77801 2.16613 9.41858 2.2688C11.0592 2.37146 12.6058 3.06949 13.7681 4.23181C14.9305 5.39413 15.6285 6.9408 15.7312 8.58136C15.8339 10.2219 15.3341 11.8436 14.3257 13.1417C13.3174 14.4399 11.8698 15.3253 10.2549 15.6317C8.6399 15.9381 6.96862 15.6444 5.55487 14.8058L3.22356 15.4718C3.12711 15.4994 3.02504 15.5006 2.92793 15.4755C2.83082 15.4503 2.74221 15.3996 2.67128 15.3287C2.60035 15.2578 2.54967 15.1692 2.52451 15.072C2.49935 14.9749 2.50061 14.8729 2.52817 14.7764L3.19421 12.4451Z" stroke="#21B546" stroke-linecap="round" stroke-linejoin="round"/>
<path d="M10.6955 12.9375C9.95545 12.9385 9.22248 12.7935 8.53858 12.5108C7.85468 12.2281 7.23329 11.8132 6.71001 11.2899C6.18673 10.7667 5.77185 10.1453 5.48913 9.46137C5.20642 8.77747 5.06144 8.0445 5.06249 7.30447C5.06416 6.78358 5.27238 6.28462 5.64145 5.91704C6.01053 5.54946 6.51034 5.34327 7.03123 5.34372C7.11667 5.34372 7.20059 5.3663 7.27449 5.40919C7.34838 5.45207 7.40963 5.51373 7.45202 5.58791L8.27405 7.02645C8.32362 7.11321 8.34919 7.2116 8.34813 7.31152C8.34707 7.41143 8.31941 7.50926 8.268 7.59494L7.60783 8.69522C7.94747 9.44895 8.551 10.0525 9.30473 10.3921L10.405 9.73196C10.4907 9.68055 10.5885 9.65289 10.6884 9.65183C10.7883 9.65077 10.8867 9.67634 10.9735 9.72591L12.412 10.5479C12.4862 10.5903 12.5479 10.6516 12.5908 10.7255C12.6336 10.7994 12.6562 10.8833 12.6562 10.9687C12.6547 11.489 12.4479 11.9877 12.0808 12.3564C11.7136 12.725 11.2158 12.9339 10.6955 12.9375Z" stroke="#21B546" stroke-linecap="round" stroke-linejoin="round"/>
</svg>
