<svg width="20" height="20" viewBox="0 0 20 20" fill="none" xmlns="http://www.w3.org/2000/svg">
<path d="M15.7486 7.24522C15.7507 5.76012 15.1811 4.33194 14.1584 3.25522C13.1356 2.17849 11.738 1.53647 10.2549 1.46189C8.77183 1.38731 7.31674 1.8866 6.19165 2.85536C5.06665 3.82411 4.3571 5.18845 4.2102 6.66645C4.06329 8.14445 4.49074 9.62173 5.40338 10.7928C6.31601 11.964 7.6441 12.7395 9.11283 12.9583V14.611H7.77334C7.30247 14.611 6.92107 14.9931 6.92107 15.4632C6.92107 15.9341 7.30247 16.3155 7.77334 16.3155H9.11283V17.655C9.11283 18.1259 9.49423 18.5073 9.9651 18.5073C10.436 18.5073 10.8174 18.1259 10.8174 17.655V16.3155H12.1569C12.6277 16.3155 13.0091 15.9341 13.0091 15.4632C13.0091 14.9931 12.6277 14.611 12.1569 14.611H10.8174V12.9583C12.1867 12.7537 13.4374 12.0641 14.3423 11.0157C15.2471 9.96743 15.7457 8.63012 15.7486 7.24522ZM5.88639 7.24522C5.88639 6.16354 6.31609 5.12594 7.08099 4.36103C7.8459 3.59612 8.88356 3.16643 9.96518 3.16643C11.0468 3.16643 12.0844 3.59612 12.8494 4.36103C13.6143 5.12594 14.044 6.16289 14.044 7.24449C14.044 8.32687 13.6143 9.36376 12.8494 10.1287C12.0844 10.8936 11.0468 11.324 9.96518 11.324C8.8835 11.3226 7.84736 10.8922 7.08245 10.128C6.31825 9.36305 5.88781 8.32609 5.88639 7.24522Z" fill="#21B546"/>
</svg>
